<?xml version="1.0" encoding="utf-8"?>
<!-- Generator: Adobe Illustrator 25.2.0, SVG Export Plug-In . SVG Version: 6.00 Build 0)  -->
<svg version="1.1" id="Layer_1" xmlns="http://www.w3.org/2000/svg" xmlns:xlink="http://www.w3.org/1999/xlink" x="0px" y="0px"
	 viewBox="0 0 750.7 468.8" style="enable-background:new 0 0 750.7 468.8;" xml:space="preserve">
<style type="text/css">
	.st0{fill:#EBEFF2;}
	.st1{fill:#D8DEE8;}
	.st2{opacity:0.13;fill:#F8F8FA;enable-background:new    ;}
	.st3{opacity:0.13;fill:#FFFFFF;enable-background:new    ;}
	.st4{opacity:0.13;}
	.st5{fill:#F8F8FA;}
	.st6{opacity:0.25;fill:url(#Path_3474_1_);enable-background:new    ;}
	.st7{opacity:0.25;fill:url(#Path_3475_1_);enable-background:new    ;}
	.st8{opacity:0.25;fill:#F8F8FA;enable-background:new    ;}
	.st9{opacity:0.25;fill:url(#Path_3478_1_);enable-background:new    ;}
	.st10{fill:#97A6B7;}
	.st11{fill:url(#Path_3484_1_);}
	.st12{fill:#FFFFFF;}
	.st13{opacity:0.3;fill:#D8DEE8;enable-background:new    ;}
	.st14{fill:url(#Path_3488_1_);}
	.st15{opacity:0.6;fill:#FFFFFF;enable-background:new    ;}
	.st16{opacity:0.36;fill:#FFFFFF;enable-background:new    ;}
	.st17{fill:url(#Path_3492_1_);}
	.st18{opacity:0.5;fill:url(#Path_3493_1_);enable-background:new    ;}
	.st19{opacity:0.5;fill:url(#Path_3494_1_);enable-background:new    ;}
	.st20{opacity:0.5;fill:url(#Path_3504_1_);enable-background:new    ;}
	.st21{fill:url(#Path_3506_1_);}
	.st22{opacity:0.5;fill:url(#Path_3525_1_);enable-background:new    ;}
	.st23{opacity:0.5;fill:url(#Path_3527_1_);enable-background:new    ;}
	.st24{opacity:0.5;fill:url(#Path_3528_1_);enable-background:new    ;}
	.st25{opacity:0.5;fill:url(#Path_3529_1_);enable-background:new    ;}
	.st26{fill:url(#Path_3530_1_);}
	.st27{opacity:0.5;fill:url(#Path_3532_1_);enable-background:new    ;}
	.st28{opacity:0.5;fill:url(#Path_3533_1_);enable-background:new    ;}
	.st29{opacity:0.5;fill:url(#Path_3535_1_);enable-background:new    ;}
	.st30{opacity:0.5;fill:url(#Path_3536_1_);enable-background:new    ;}
	.st31{opacity:0.5;fill:url(#Path_3537_1_);enable-background:new    ;}
	.st32{fill:url(#Path_3539_1_);}
	.st33{opacity:0.5;fill:url(#Path_3540_1_);enable-background:new    ;}
	.st34{opacity:0.5;fill:url(#Path_3541_1_);enable-background:new    ;}
	.st35{opacity:0.5;fill:url(#Path_3542_1_);enable-background:new    ;}
	.st36{fill:url(#Path_3543_1_);}
	.st37{opacity:0.14;fill:#FFFFFF;enable-background:new    ;}
	.st38{fill:url(#Path_3578_1_);}
	.st39{opacity:0.3;}
	.st40{fill:url(#Path_3579_1_);}
	.st41{opacity:0.68;fill:#F8F8FA;enable-background:new    ;}
	.st42{opacity:0.68;fill:#FFFFFF;enable-background:new    ;}
	.st43{fill:url(#Path_3587_1_);}
	.st44{fill:#707070;}
	.st45{opacity:0.3;fill:#F9DFC0;enable-background:new    ;}
	.st46{fill:#999999;}
	.st47{fill:#C2C2C2;}
	.st48{opacity:0.57;fill:url(#Path_3603_1_);enable-background:new    ;}
	.st49{opacity:0.7;fill:url(#Path_3614_1_);enable-background:new    ;}
	.st50{opacity:0.7;fill:url(#Path_3615_1_);enable-background:new    ;}
	.st51{opacity:0.7;fill:url(#Path_3616_1_);enable-background:new    ;}
	.st52{opacity:0.7;fill:url(#Path_3617_1_);enable-background:new    ;}
	.st53{opacity:0.7;fill:url(#Path_3618_1_);enable-background:new    ;}
	.st54{fill:url(#Path_3619_1_);}
	.st55{fill:#FFC444;}
	.st56{fill:url(#Path_3621_1_);}
	.st57{fill:url(#Path_3622_1_);}
	.st58{fill:url(#Path_3623_1_);}
	.st59{fill:url(#Path_3624_1_);}
	.st60{fill:url(#Path_3625_1_);}
	.st61{fill:url(#Path_3626_1_);}
	.st62{fill:url(#Path_3627_1_);}
	.st63{fill:url(#Path_3628_1_);}
	.st64{fill:url(#Path_3629_1_);}
	.st65{fill:#26264F;}
	.st66{fill:url(#Path_3631_1_);}
	.st67{fill:#9B305E;}
	.st68{fill:url(#Path_3634_1_);}
	.st69{fill:url(#Path_3636_1_);}
	.st70{fill:url(#Path_3637_1_);}
	.st71{fill:url(#Path_3638_1_);}
	.st72{fill:url(#Path_3639_1_);}
	.st73{fill:url(#Path_3640_1_);}
	.st74{opacity:0.3;fill:url(#Path_3641_1_);enable-background:new    ;}
	.st75{fill:url(#Path_3642_1_);}
	.st76{fill:url(#Path_3643_1_);}
	.st77{fill:url(#Path_3644_1_);}
	.st78{fill:url(#Path_3645_1_);}
	.st79{fill:url(#Path_3646_1_);}
	.st80{fill:url(#Path_3647_1_);}
	.st81{opacity:0.3;fill:url(#Path_3648_1_);enable-background:new    ;}
	.st82{opacity:0.3;fill:url(#Path_3649_1_);enable-background:new    ;}
	.st83{fill:url(#Path_3651_1_);}
	.st84{fill:url(#Path_3652_1_);}
	.st85{fill:url(#Path_3653_1_);}
	.st86{fill:url(#Path_3654_1_);}
	.st87{fill:url(#Path_3655_1_);}
	.st88{fill:url(#Path_3656_1_);}
	.st89{fill:url(#Path_3657_1_);}
	.st90{fill:url(#Path_3658_1_);}
	.st91{fill:url(#Path_3659_1_);}
	.st92{fill:url(#Path_3660_1_);}
	.st93{fill:url(#Path_3661_1_);}
	.st94{fill:url(#Path_3662_1_);}
	.st95{fill:url(#Path_3663_1_);}
	.st96{fill:url(#Path_3664_1_);}
	.st97{opacity:0.49;}
	.st98{fill:url(#Path_3666_1_);}
	.st99{fill:url(#Path_3667_1_);}
	.st100{fill:url(#Path_3669_1_);}
	.st101{fill:url(#Path_3670_1_);}
	.st102{fill:url(#Path_3671_1_);}
	.st103{fill:url(#Path_3673_1_);}
	.st104{fill:#444B8C;}
	.st105{fill:url(#Path_3675_1_);}
	.st106{fill:url(#Path_3676_1_);}
	.st107{fill:url(#Path_3678_1_);}
	.st108{fill:url(#Path_3680_1_);}
	.st109{fill:url(#Path_3681_1_);}
	.st110{fill:url(#Path_3682_1_);}
	.st111{fill:url(#Path_3683_1_);}
	.st112{fill:url(#Path_3684_1_);}
	.st113{fill:url(#Path_3685_1_);}
	.st114{opacity:0.3;fill:url(#Path_3686_1_);enable-background:new    ;}
	.st115{fill:url(#Path_3687_1_);}
	.st116{fill:url(#Path_3688_1_);}
	.st117{fill:url(#Path_3689_1_);}
	.st118{fill:url(#Path_3690_1_);}
	.st119{fill:url(#Path_3691_1_);}
	.st120{fill:url(#Path_3692_1_);}
	.st121{fill:url(#Path_3693_1_);}
	.st122{fill:url(#Path_3694_1_);}
	.st123{fill:url(#Path_3695_1_);}
	.st124{fill:url(#Path_3696_1_);}
	.st125{fill:url(#Path_3697_1_);}
	.st126{fill:url(#Path_3698_1_);}
	.st127{fill:url(#Path_3699_1_);}
	.st128{fill:url(#Path_3700_1_);}
	.st129{opacity:0.3;fill:url(#Path_3701_1_);enable-background:new    ;}
	.st130{fill:url(#Path_3702_1_);}
	.st131{enable-background:new    ;}
	.st132{fill:#334459;}
</style>
<g id="banner_image" transform="translate(-3042.265 -1200.699)">
	<path id="Path_3452" class="st0" d="M3389.9,1553c-56.9,1.8-97.7,6.7-149.8,13c-43.9,5.3-198.5,24.2-197.9,40.7
		c0.5,13.8,109.2,17.8,109.1,32.6c0,7.8-30.4,10.9-30.1,16.3c0.4,9,85.8,17.7,191.3,12.2c104.1-5.4,123.8-19.1,244.3-33.4
		c155.4-18.4,234.9-8.8,236.1-21.2c1.5-15.6-124.1-43.6-228-54.6C3548.2,1556.9,3480.2,1550.1,3389.9,1553z"/>
	<path id="Path_3453" class="st1" d="M3394,1561.1c-12.6,1.8-31.8,5.5-63.5,8.5c-13.9,1.4-46.6,4.2-80.6,7.3
		c-24.1,2.2-37.4,3.5-37.5,5.7c-0.1,3.7,39.1,6,39.1,9c-0.1,6-157.6,0.9-159.2,15.9c-0.8,7.4,36.6,18.3,66.4,23.2
		c46.3,7.7,82,2.2,140-7.3c108.4-17.7,105.3-18.1,132.3-22c112-16.2,165.7-10.1,166.1-17.1C3597.8,1574.1,3482,1548.4,3394,1561.1z"
		/>
	<path id="Path_3454" class="st1" d="M3230.8,1640.1c-2.5-9.6-67.4-6-68.8,3.7c-0.8,5.5,18.5,16,37.9,13.8
		C3215.9,1655.8,3232.1,1645.3,3230.8,1640.1z"/>
	<path id="Path_3455" class="st1" d="M3521,1610c-23.6-6.8-52.3-0.5-52.5,5.7c-0.1,5.4,21.7,11.9,40.7,10.2c10.5-1,24-4.8,24-9
		C3533.2,1613.5,3524.4,1611,3521,1610z"/>
	<path id="Path_3456" class="st1" d="M3627.3,1604.7c-25.1-2-52.2,3.8-52.1,8.5c0.1,4.9,28.6,9.2,53.3,7.3
		c11.1-0.8,29.6-3.5,29.7-7.3C3658.3,1609.6,3640.9,1605.8,3627.3,1604.7z"/>
	<g id="Group_3369" transform="translate(3061.135 1222.751)">
		<path id="Path_3467" class="st2" d="M94.8,177.1l-3.3,0c-0.3-1.5-0.7-3-1.2-4.4l2.9-1.6c0.8-0.4,1.1-1.4,0.6-2.2c0,0,0,0,0,0
			l-2.8-5c-0.5-0.8-1.5-1.1-2.3-0.6l-2.9,1.6c-1-1.2-2-2.2-3.2-3.2l1.7-2.9c0.5-0.8,0.2-1.8-0.6-2.3l-5-2.9
			c-0.8-0.5-1.8-0.2-2.3,0.6c0,0,0,0,0,0l-1.7,2.9c-1.4-0.5-2.9-0.9-4.4-1.2v-3.4c0-0.9-0.8-1.7-1.7-1.7l-5.8-0.1
			c-0.9,0-1.7,0.7-1.7,1.6c0,0,0,0,0,0v3.4c-1.5,0.2-3,0.6-4.4,1.1l-1.7-3c-0.5-0.8-1.5-1.1-2.3-0.6l-5.1,2.8
			c-0.8,0.4-1.1,1.4-0.6,2.2c0,0,0,0,0,0l1.7,3c-1.2,1-2.3,2-3.3,3.2l-3-1.7c-0.8-0.5-1.8-0.2-2.3,0.6l-2.9,5
			c-0.5,0.8-0.2,1.8,0.6,2.3c0,0,0,0,0,0l3,1.7c-0.5,1.4-0.9,2.9-1.2,4.4l-3.4,0c-0.9,0-1.7,0.7-1.7,1.6c0,0,0,0,0,0v5.8
			c0,0.9,0.8,1.7,1.7,1.7l3.4,0c0.3,1.5,0.7,3,1.2,4.5l-2.9,1.7c-0.8,0.4-1.1,1.4-0.6,2.2c0,0,0,0,0,0l2.9,5
			c0.5,0.8,1.5,1.1,2.3,0.6l2.9-1.7c1,1.2,2.1,2.3,3.3,3.3l-1.7,2.9c-0.5,0.8-0.2,1.8,0.6,2.3c0,0,0,0,0,0l5.1,2.9
			c0.8,0.5,1.8,0.2,2.3-0.6l1.7-2.8c1.5,0.5,3,0.9,4.5,1.2v3.3c0,0.9,0.8,1.7,1.7,1.7c0,0,0,0,0,0l5.8,0c0.9,0,1.7-0.7,1.7-1.7v-3.3
			c1.5-0.3,3-0.7,4.5-1.2l1.6,2.8c0.5,0.8,1.5,1.1,2.3,0.6l5-2.9c0.8-0.5,1.1-1.5,0.6-2.2c0,0,0,0,0,0l-1.6-2.8
			c1.2-1,2.3-2.1,3.2-3.2l2.8,1.6c0.8,0.5,1.8,0.2,2.3-0.6l2.8-4.9c0.5-0.8,0.2-1.8-0.6-2.2l-2.8-1.6c0.5-1.4,0.9-2.9,1.2-4.4l3.3,0
			c0.9,0,1.6-0.7,1.6-1.6c0,0,0,0,0,0v-5.7C96.4,177.9,95.7,177.1,94.8,177.1z M65.7,164.7c9.3,0.1,16.8,7.6,16.8,16.9
			c0,9.2-7.5,16.7-16.8,16.6c0,0,0,0-0.1,0c-9.3,0-17-7.5-17-16.9c0-9.2,7.5-16.7,16.7-16.6C65.6,164.7,65.6,164.7,65.7,164.7z"/>
		<g id="Group_3368" transform="translate(47.133 0)">
			<path id="Path_3468" class="st2" d="M129.7,72.7l-5.2-0.1c-0.4-2.3-1-4.6-1.9-6.8l4.5-2.4c1.2-0.6,1.6-2.1,1-3.3
				c0,0,0-0.1-0.1-0.1l-4.5-7.7c-0.7-1.2-2.3-1.7-3.6-1l-4.6,2.4c-1.5-1.8-3.2-3.5-5.1-5.1l2.7-4.4c0.7-1.2,0.3-2.8-0.9-3.5
				c0,0,0,0,0,0l-7.9-4.7c-1.2-0.8-2.8-0.4-3.6,0.8L98,41.2c-2.3-0.9-4.6-1.6-7-2v-5.3c0-1.5-1.2-2.6-2.7-2.7l-9.2-0.4
				c-1.4-0.1-2.6,0.9-2.7,2.3c0,0,0,0.1,0,0.1v5.3c-2.4,0.3-4.8,0.8-7.1,1.5l-2.8-4.7c-0.8-1.3-2.4-1.7-3.7-1.1l-8.1,4.1
				c-1.2,0.6-1.7,2.1-1.1,3.3c0,0.1,0.1,0.1,0.1,0.2l2.8,4.7c-1.9,1.4-3.7,3.1-5.3,4.8l-4.8-2.8c-1.3-0.8-2.9-0.4-3.7,0.8L38,57.1
				c-0.7,1.2-0.3,2.8,0.9,3.5c0,0,0.1,0,0.1,0.1l4.8,2.8c-0.9,2.2-1.5,4.5-1.9,6.8l-5.5-0.2c-1.4-0.1-2.7,1-2.7,2.4c0,0,0,0.1,0,0.1
				v9c0,1.5,1.3,2.7,2.7,2.7l5.5,0.1c0.4,2.4,1.1,4.7,1.9,7L39,93.9c-1.2,0.6-1.7,2.1-1.1,3.3c0,0.1,0.1,0.1,0.1,0.2l4.7,7.8
				c0.8,1.3,2.4,1.7,3.7,1l4.7-2.5c1.6,1.9,3.4,3.6,5.3,5.1l-2.7,4.4c-0.7,1.2-0.3,2.8,0.9,3.5c0,0,0.1,0,0.1,0.1l8.1,4.6
				c1.3,0.7,2.9,0.3,3.7-0.9l2.6-4.3c2.3,0.8,4.7,1.5,7.2,1.9v5c0,1.4,1.2,2.6,2.7,2.6l9.2,0.1c1.4,0,2.6-1.1,2.7-2.5c0,0,0,0,0,0
				v-5c2.4-0.4,4.8-0.9,7.1-1.7l2.6,4.4c0.7,1.2,2.3,1.7,3.6,1l7.9-4.3c1.2-0.6,1.7-2.1,1-3.3c0,0,0-0.1-0.1-0.1l-2.6-4.4
				c1.8-1.5,3.6-3.1,5.1-4.9l4.5,2.6c1.2,0.7,2.8,0.3,3.6-0.9l4.5-7.5c0.7-1.2,0.3-2.7-0.9-3.4c0,0,0,0,0,0l-4.5-2.6
				c0.8-2.2,1.4-4.4,1.8-6.7l5.2,0.1c1.4,0.1,2.5-1,2.6-2.4c0,0,0-0.1,0-0.1v-8.7C132.3,73.9,131.1,72.7,129.7,72.7z M83.7,52.7
				c14.8,0.5,26.7,12.4,26.7,26.5s-11.9,25.4-26.7,25.2c-14.9-0.3-27.2-12.1-27.2-26.5S68.8,52.2,83.7,52.7L83.7,52.7z"/>
			<g id="Group_3367">
				<path id="Path_3469" class="st3" d="M83.7,0.1C38-2.2,0,31.9,0,76.3s38,80.4,83.7,80.4c44.4,0,79.6-34.1,79.6-76.3
					S128.2,2.3,83.7,0.1z M83.7,138c-34.7-0.2-63.3-27.6-63.3-61.2s28.6-59.5,63.3-58c33.9,1.5,60.9,28.8,60.9,61.1
					S117.6,138.2,83.7,138L83.7,138z"/>
				<g id="Group_3366" transform="translate(0 0.003)" class="st4">
					<path id="Path_3470" class="st5" d="M28.2,105.9l-17.6,9.3c6.9,11.8,16.7,21.7,28.4,28.9l10-16.4
						C40.4,122.2,33.3,114.7,28.2,105.9z"/>
					<path id="Path_3471" class="st5" d="M133.8,46.1l16.3-8.6c-6.8-10.2-15.8-18.8-26.3-25.1L114.3,28
						C122,32.6,128.7,38.8,133.8,46.1z"/>
					<path id="Path_3472" class="st5" d="M32,42.4c5.5-7.1,12.5-13,20.5-17l-10-16.9c-11.1,5.5-20.8,13.6-28.1,23.6L32,42.4z"/>
					<path id="Path_3473" class="st5" d="M20.4,76.8c0-0.7,0-1.4,0.1-2.1L0,74.1c0,0.7,0,1.4,0,2.2c0,12.4,3,24.7,8.8,35.7l17.7-9.3
						C22.5,94.6,20.4,85.8,20.4,76.8z"/>
					
						<linearGradient id="Path_3474_1_" gradientUnits="userSpaceOnUse" x1="-0.277" y1="607.3033" x2="1.187" y2="602.3073" gradientTransform="matrix(24.293 0 0 -36.181 135.1817 21949.1289)">
						<stop  offset="0" style="stop-color:#FFC444"/>
						<stop  offset="0.996" style="stop-color:#F36F56"/>
					</linearGradient>
					<path id="Path_3474" class="st6" d="M144.6,79.9c0,8.5-1.9,17-5.6,24.7l16.3,9.5c5.3-10.4,8-22,8-33.7c0-0.7,0-1.4,0-2
						l-18.7-0.5C144.6,78.6,144.6,79.2,144.6,79.9z"/>
					
						<linearGradient id="Path_3475_1_" gradientUnits="userSpaceOnUse" x1="0.8005" y1="608.0181" x2="1.7845" y2="603.1321" gradientTransform="matrix(35.949 0 0 -36.792 78.946 22350.9863)">
						<stop  offset="0" style="stop-color:#FFC444"/>
						<stop  offset="0.996" style="stop-color:#F36F56"/>
					</linearGradient>
					<path id="Path_3475" class="st7" d="M137.4,107.7c-4.8,8.4-11.5,15.5-19.7,20.7l9.5,16.1c11-6.8,20-16.2,26.4-27.4L137.4,107.7
						z"/>
					<path id="Path_3476" class="st5" d="M135.8,49.1c4.8,7.7,7.7,16.3,8.6,25.3l18.7,0.5c-0.9-12.2-4.7-24-11-34.4L135.8,49.1z"/>
					<path id="Path_3477" class="st8" d="M81.9,137.9c-10.4-0.4-20.6-3.2-29.6-8.3l-10,16.3c12.1,6.7,25.7,10.4,39.6,10.7V137.9z"/>
					
						<linearGradient id="Path_3478_1_" gradientUnits="userSpaceOnUse" x1="0.8682" y1="608.282" x2="1.7892" y2="601.464" gradientTransform="matrix(38.5779 0 0 -26.489 38.9596 16099.5342)">
						<stop  offset="0" style="stop-color:#FFC444"/>
						<stop  offset="0.996" style="stop-color:#F36F56"/>
					</linearGradient>
					<path id="Path_3478" class="st9" d="M114.6,130.2c-8.9,4.9-18.9,7.6-29,7.8v18.7c13.5-0.2,26.8-3.8,38.6-10.4L114.6,130.2z"/>
					<path id="Path_3479" class="st5" d="M55.9,23.9c8.2-3.5,17.1-5.3,26-5.1V0c-12.4-0.4-24.7,2-36,7L55.9,23.9z"/>
					<path id="Path_3480" class="st5" d="M20.7,71.1c0.9-9.2,4.1-18,9.2-25.7L12.3,35.2C5.3,45.7,1.2,57.9,0.2,70.5L20.7,71.1z"/>
					<path id="Path_3481" class="st5" d="M85.6,19c8.9,0.6,17.6,3.1,25.5,7.2l9.6-15.7C109.9,4.6,97.9,1.1,85.6,0.2V19z"/>
				</g>
			</g>
		</g>
		<path id="Path_3482" class="st2" d="M46.2,125.1l-2.6,0c-0.2-1.1-0.5-2.2-0.9-3.2l2.2-1.2c0.6-0.3,0.8-1,0.5-1.6c0,0,0,0,0,0
			l-2.2-3.6c-0.4-0.6-1.1-0.8-1.7-0.4l-2.2,1.3c-0.8-0.9-1.6-1.6-2.5-2.3l1.3-2.2c0.3-0.6,0.2-1.3-0.4-1.6c0,0,0,0-0.1,0l-3.8-2.1
			c-0.6-0.3-1.4-0.1-1.7,0.5l-1.3,2.2c-1.1-0.4-2.2-0.7-3.4-0.8v-2.5c0-0.7-0.6-1.2-1.3-1.2c0,0,0,0,0,0l-4.4,0
			c-0.7,0-1.3,0.5-1.3,1.2v2.5c-1.2,0.2-2.3,0.5-3.4,0.9l-1.3-2.2c-0.4-0.6-1.1-0.8-1.8-0.4l-3.9,2.1c-0.6,0.3-0.8,1-0.5,1.6
			c0,0,0,0,0,0.1l1.3,2.2c-0.9,0.7-1.7,1.5-2.5,2.4l-2.3-1.2c-0.6-0.3-1.4-0.1-1.8,0.5l-2.2,3.7c-0.3,0.6-0.2,1.3,0.4,1.6
			c0,0,0,0,0.1,0l2.3,1.2c-0.4,1.1-0.7,2.2-0.9,3.3l-2.6,0c-0.7,0-1.3,0.5-1.3,1.2v4.3c0,0.7,0.6,1.2,1.3,1.2c0,0,0,0,0,0l2.6,0
			c0.2,1.1,0.5,2.2,0.9,3.3l-2.2,1.3c-0.6,0.3-0.8,1-0.5,1.6c0,0,0,0,0,0.1l2.2,3.7c0.4,0.6,1.2,0.8,1.8,0.4l2.2-1.3
			c0.8,0.9,1.6,1.7,2.5,2.4l-1.3,2.1c-0.3,0.6-0.2,1.3,0.4,1.6c0,0,0,0,0.1,0l3.9,2.1c0.6,0.3,1.4,0.1,1.8-0.5l1.3-2.1
			c1.1,0.4,2.3,0.7,3.4,0.8v2.4c0,0.7,0.6,1.2,1.3,1.2c0,0,0,0,0,0l4.4-0.1c0.7,0,1.3-0.6,1.3-1.2v-2.4c1.2-0.2,2.3-0.5,3.4-0.9
			l1.3,2.1c0.4,0.6,1.1,0.8,1.7,0.4l3.8-2.2c0.6-0.3,0.8-1,0.5-1.6c0,0,0,0,0,0l-1.3-2.1c0.9-0.7,1.7-1.5,2.5-2.4l2.2,1.2
			c0.6,0.3,1.4,0.1,1.7-0.5l2.2-3.7c0.3-0.6,0.2-1.3-0.4-1.6c0,0,0,0-0.1,0l-2.2-1.2c0.4-1.1,0.7-2.2,0.9-3.3l2.5,0
			c0.7,0,1.2-0.5,1.3-1.2v-4.2C47.4,125.6,46.9,125.1,46.2,125.1C46.2,125.1,46.2,125.1,46.2,125.1z M23.9,116.3
			c6.9-0.2,12.7,5.2,12.9,12.2c0,0,0,0.1,0,0.1c0,6.8-5.8,12.4-12.9,12.5c-6.9,0.3-12.7-5.1-13-12.1c0-0.1,0-0.1,0-0.2
			C10.9,121.9,16.7,116.3,23.9,116.3z"/>
	</g>
	<g id="Group_3374" transform="translate(3183.379 1211.879)">
		<g id="Group_3370" transform="translate(186.168 286.79)">
			<path id="Path_3483" class="st10" d="M123.2,68.9c-7.1-2.4-12.4-8.4-13.8-15.7L99.1,2.3l-88,3.1L0.2,58.4
				c-1.5,7.4,4.6,14.9,11.6,17.6l36.8,14.4c6.8,2.7,14.2,3.7,21.5,3.1l77.8-6.7c2.3-0.2,4.1-2,4.4-4.3c0.3-2.3,1.9-4.9-0.3-5.6
				L123.2,68.9z"/>
			
				<linearGradient id="Path_3484_1_" gradientUnits="userSpaceOnUse" x1="-258.2412" y1="331.0033" x2="-258.2412" y2="330.4603" gradientTransform="matrix(150.2471 0 0 -90.3669 38878.082 29933.8984)">
				<stop  offset="0.494" style="stop-color:#EBEFF2"/>
				<stop  offset="1" style="stop-color:#FFFFFF"/>
			</linearGradient>
			<path id="Path_3484" class="st11" d="M124.1,65.8c-7.1-2.3-12.3-8.2-13.8-15.5L100,0L14.1,3.1L3.3,55.5
				c-1.5,7.3,2.5,14.7,9.5,17.4l36.8,14.2c6.8,2.6,14.2,3.7,21.5,3.1l77.8-6.6c2.6-0.2,4.6-2.6,4.4-5.2c-0.2-1.9-1.5-3.5-3.3-4.1
				L124.1,65.8z"/>
		</g>
		<g id="Group_3373" transform="translate(0)">
			<g id="Group_3371">
				<path id="Path_3485" class="st10" d="M17.4,322.9C7.8,323.5,0,317.3,0,309.1v-295C0,5.9,7.8-0.4,17.4,0l443.4,30.7
					c7,0.3,10.8-5.4,10.8,1.6v250.9c-0.1,7.1-5.6,12.9-12.7,13.4L17.4,322.9z"/>
				<path id="Path_3486" class="st12" d="M21.3,322.9C11.8,323.5,4,317.3,4,309.1v-295C4,5.9,11.8-0.4,21.3,0l441.5,19.1
					c7,0.3,12.6,6.1,12.7,13.2v250.9c-0.1,7.1-5.6,12.9-12.7,13.4L21.3,322.9z"/>
				<path id="Path_3487" class="st13" d="M462.8,25.1L21.3,6.9c-5.1-0.2-9.3,3.2-9.3,7.5v294.2c0,4.4,4.1,7.7,9.3,7.4l441.5-25.4
					c3.8-0.2,6.7-3.4,6.8-7.2V32.1C469.6,28.3,466.6,25.2,462.8,25.1z"/>
			</g>
			<g id="Group_3372" transform="translate(17.863 11.462)">
				
					<linearGradient id="Path_3488_1_" gradientUnits="userSpaceOnUse" x1="-89.8813" y1="607.9886" x2="-89.4153" y2="606.6196" gradientTransform="matrix(447.8174 0 0 -279.3934 40362.2695 169810.2188)">
					<stop  offset="0" style="stop-color:#444B8C"/>
					<stop  offset="0.996" style="stop-color:#26264F"/>
				</linearGradient>
				<path id="Path_3488" class="st14" d="M441.7,258L8.2,279.4c-4.6,0.2-8.2-2.8-8.2-6.7V6.8c0-3.9,3.7-7,8.2-6.8l433.4,16.1
					c3.4,0.1,6.1,2.9,6.2,6.4v229.1C447.8,255,445.1,257.8,441.7,258z"/>
				<path id="Path_3489" class="st15" d="M116.4,28.1l-99-2.9v-9.4l99,3.2V28.1z"/>
				<path id="Path_3490" class="st16" d="M163,26.8l-22.9-0.7v-6.4l22.9,0.7V26.8z"/>
				<path id="Path_3491" class="st16" d="M163,35.7l-22.9-0.6v-6.4l22.9,0.7V35.7z"/>
				
					<linearGradient id="Path_3492_1_" gradientUnits="userSpaceOnUse" x1="-90.3612" y1="596.0594" x2="-89.9392" y2="570.0435" gradientTransform="matrix(88.71 0 0 -8.776 8239.0801 5208.0278)">
					<stop  offset="4.000000e-03" style="stop-color:#E38DDD"/>
					<stop  offset="1" style="stop-color:#9571F6"/>
				</linearGradient>
				<path id="Path_3492" class="st17" d="M276.9,38.9l-88.7-2.4v-6.3l88.7,2.6V38.9z"/>
				
					<linearGradient id="Path_3493_1_" gradientUnits="userSpaceOnUse" x1="-90.7626" y1="588.8452" x2="-89.7626" y2="588.8452" gradientTransform="matrix(87.8281 0 0 -8.468 8175.1646 5029.8896)">
					<stop  offset="0" style="stop-color:#FF9085"/>
					<stop  offset="1" style="stop-color:#FB6FBB"/>
				</linearGradient>
				<path id="Path_3493" class="st18" d="M291.5,47.8l-87.8-2.2v-6.3l87.8,2.3V47.8z"/>
				
					<linearGradient id="Path_3494_1_" gradientUnits="userSpaceOnUse" x1="-90.7626" y1="588.2596" x2="-89.7626" y2="588.2596" gradientTransform="matrix(87.8281 0 0 -8.215 8175.1646 4884.7178)">
					<stop  offset="0" style="stop-color:#FF9085"/>
					<stop  offset="1" style="stop-color:#FB6FBB"/>
				</linearGradient>
				<path id="Path_3494" class="st19" d="M291.5,56.3l-87.8-1.9v-6.3l87.8,2.1V56.3z"/>
				<path id="Path_3495" class="st15" d="M291.5,64.8l-87.8-1.6v-6.3l87.8,1.8V64.8z"/>
				<path id="Path_3496" class="st16" d="M163,44.6l-22.9-0.6v-6.4l22.9,0.6V44.6z"/>
				<path id="Path_3497" class="st16" d="M163,53.5L140.1,53v-6.4l22.9,0.5V53.5z"/>
				<path id="Path_3498" class="st16" d="M163,62.4L140.1,62v-6.4L163,56V62.4z"/>
				<path id="Path_3499" class="st16" d="M163,71.3l-22.9-0.4v-6.4l22.9,0.4V71.3z"/>
				<path id="Path_3500" class="st15" d="M224.3,72.3L168,71.4V65l56.3,1V72.3z"/>
				<path id="Path_3501" class="st16" d="M163,80.2l-22.9-0.3v-6.4l22.9,0.3V80.2z"/>
				<path id="Path_3502" class="st16" d="M163,89.1l-22.9-0.2v-6.4l22.9,0.3V89.1z"/>
				<path id="Path_3503" class="st16" d="M163,98l-22.9-0.2v-6.4l22.9,0.2V98z"/>
				
					<linearGradient id="Path_3504_1_" gradientUnits="userSpaceOnUse" x1="-91.0828" y1="585.3532" x2="-90.0828" y2="585.3532" gradientTransform="matrix(62.3999 0 0 -7.1541 5871.7832 4265.3979)">
					<stop  offset="0" style="stop-color:#FF9085"/>
					<stop  offset="1" style="stop-color:#FB6FBB"/>
				</linearGradient>
				<path id="Path_3504" class="st20" d="M250.6,81.3l-62.4-0.8v-6.3l62.4,0.9V81.3z"/>
				<path id="Path_3505" class="st15" d="M283,90.3l-79.4-0.8v-6.3l79.4,1V90.3z"/>
				
					<linearGradient id="Path_3506_1_" gradientUnits="userSpaceOnUse" x1="-90.5908" y1="601.6431" x2="-90.1588" y2="571.2881" gradientTransform="matrix(79.3921 0 0 -6.881 7416.1152 4117.0547)">
					<stop  offset="4.000000e-03" style="stop-color:#E38DDD"/>
					<stop  offset="1" style="stop-color:#9571F6"/>
				</linearGradient>
				<path id="Path_3506" class="st21" d="M283,98.8l-79.4-0.6V92l79.4,0.7V98.8z"/>
				<path id="Path_3507" class="st16" d="M163,106.9l-22.9-0.1v-6.4l22.9,0.1V106.9z"/>
				<path id="Path_3508" class="st16" d="M163,115.8l-22.9,0v-6.4l22.9,0.1V115.8z"/>
				<path id="Path_3509" class="st16" d="M163,124.7l-22.9,0v-6.4l22.9,0V124.7z"/>
				<path id="Path_3510" class="st16" d="M163,133.6l-22.9,0.1v-6.4l22.9-0.1V133.6z"/>
				<path id="Path_3511" class="st16" d="M163,142.4l-22.9,0.2v-6.4L163,136V142.4z"/>
				<path id="Path_3512" class="st16" d="M163,151.3l-22.9,0.2v-6.4l22.9-0.2V151.3z"/>
				<path id="Path_3513" class="st16" d="M163,160.2l-22.9,0.3v-6.4l22.9-0.3V160.2z"/>
				<path id="Path_3514" class="st16" d="M163,169.1l-22.9,0.4V163l22.9-0.3V169.1z"/>
				<path id="Path_3515" class="st16" d="M163,178l-22.9,0.4V172l22.9-0.4V178z"/>
				<path id="Path_3516" class="st16" d="M163,186.9l-22.9,0.5V181l22.9-0.4V186.9z"/>
				<path id="Path_3517" class="st16" d="M163,195.8l-22.9,0.6v-6.4l22.9-0.5V195.8z"/>
				<path id="Path_3518" class="st16" d="M163,204.7l-22.9,0.6v-6.4l22.9-0.6V204.7z"/>
				<path id="Path_3519" class="st16" d="M163,213.6l-22.9,0.7v-6.4l22.9-0.6V213.6z"/>
				<path id="Path_3520" class="st16" d="M163,222.5l-22.9,0.8v-6.4l22.9-0.7V222.5z"/>
				<path id="Path_3521" class="st16" d="M163,231.4l-22.9,0.8v-6.4L163,225V231.4z"/>
				<path id="Path_3522" class="st16" d="M163,240.3l-22.9,0.9v-6.4l22.9-0.8V240.3z"/>
				<path id="Path_3523" class="st16" d="M163,249.1l-22.9,1v-6.4l22.9-0.9V249.1z"/>
				<path id="Path_3524" class="st16" d="M163,258l-22.9,1v-6.4l22.9-1V258z"/>
				
					<linearGradient id="Path_3525_1_" gradientUnits="userSpaceOnUse" x1="-91.0835" y1="588.4064" x2="-90.0835" y2="588.4064" gradientTransform="matrix(62.3621 0 0 -8.277 5847.9731 4894.9639)">
					<stop  offset="0" style="stop-color:#FF9085"/>
					<stop  offset="1" style="stop-color:#FB6FBB"/>
				</linearGradient>
				<path id="Path_3525" class="st22" d="M230.2,28.9L167.8,27v-6.4l62.4,2V28.9z"/>
				<path id="Path_3526" class="st15" d="M276.9,210.1l-88.7,2.7v-6.3l88.7-2.5V210.1z"/>
				
					<linearGradient id="Path_3527_1_" gradientUnits="userSpaceOnUse" x1="-90.7626" y1="590.0895" x2="-89.7626" y2="590.0895" gradientTransform="matrix(87.8281 0 0 -9.061 8175.1646 5563.4067)">
					<stop  offset="0" style="stop-color:#FF9085"/>
					<stop  offset="1" style="stop-color:#FB6FBB"/>
				</linearGradient>
				<path id="Path_3527" class="st23" d="M291.5,218.2l-87.8,2.9v-6.3l87.8-2.7V218.2z"/>
				
					<linearGradient id="Path_3528_1_" gradientUnits="userSpaceOnUse" x1="-90.7626" y1="590.5739" x2="-89.7626" y2="590.5739" gradientTransform="matrix(87.8281 0 0 -9.3149 8175.1646 5726.3936)">
					<stop  offset="0" style="stop-color:#FF9085"/>
					<stop  offset="1" style="stop-color:#FB6FBB"/>
				</linearGradient>
				<path id="Path_3528" class="st24" d="M291.5,226.7l-87.8,3.2v-6.3l87.8-3V226.7z"/>
				
					<linearGradient id="Path_3529_1_" gradientUnits="userSpaceOnUse" x1="-90.7835" y1="590.7321" x2="-89.7835" y2="590.7321" gradientTransform="matrix(85.5542 0 0 -9.401 8010.6841 5785.8687)">
					<stop  offset="0" style="stop-color:#FF9085"/>
					<stop  offset="1" style="stop-color:#FB6FBB"/>
				</linearGradient>
				<path id="Path_3529" class="st25" d="M329.3,233.7l-85.6,3.3v-6.2l85.6-3.2V233.7z"/>
				
					<linearGradient id="Path_3530_1_" gradientUnits="userSpaceOnUse" x1="-90.7043" y1="613.9044" x2="-90.3913" y2="596.9933" gradientTransform="matrix(85.5542 0 0 -9.649 8010.6841 5945.1787)">
					<stop  offset="4.000000e-03" style="stop-color:#E38DDD"/>
					<stop  offset="1" style="stop-color:#9571F6"/>
				</linearGradient>
				<path id="Path_3530" class="st26" d="M329.3,242.2l-85.6,3.6v-6.2l85.6-3.4V242.2z"/>
				<path id="Path_3531" class="st15" d="M329.3,250.6l-85.6,3.8v-6.2l85.6-3.7V250.6z"/>
				
					<linearGradient id="Path_3532_1_" gradientUnits="userSpaceOnUse" x1="-91.0835" y1="587.68" x2="-90.0835" y2="587.68" gradientTransform="matrix(62.3621 0 0 -7.979 5847.9731 4889.6655)">
					<stop  offset="0" style="stop-color:#FF9085"/>
					<stop  offset="1" style="stop-color:#FB6FBB"/>
				</linearGradient>
				<path id="Path_3532" class="st27" d="M230.2,202.8l-62.4,1.7v-6.4l62.4-1.6V202.8z"/>
				
					<linearGradient id="Path_3533_1_" gradientUnits="userSpaceOnUse" x1="-90.7548" y1="582.9662" x2="-89.7548" y2="582.9662" gradientTransform="matrix(88.71 0 0 -6.468 8239.0801 3883.321)">
					<stop  offset="0" style="stop-color:#FF9085"/>
					<stop  offset="1" style="stop-color:#FB6FBB"/>
				</linearGradient>
				<path id="Path_3533" class="st28" d="M276.9,115.9l-88.7-0.1v-6.3l88.7,0.3V115.9z"/>
				<path id="Path_3534" class="st15" d="M291.5,124.5l-87.8,0.1v-6.3l87.8,0V124.5z"/>
				
					<linearGradient id="Path_3535_1_" gradientUnits="userSpaceOnUse" x1="-90.7626" y1="583.1722" x2="-89.7626" y2="583.1722" gradientTransform="matrix(87.8281 0 0 -6.522 8175.1646 3933.54)">
					<stop  offset="0" style="stop-color:#FF9085"/>
					<stop  offset="1" style="stop-color:#FB6FBB"/>
				</linearGradient>
				<path id="Path_3535" class="st29" d="M291.5,133l-87.8,0.4v-6.3l87.8-0.2V133z"/>
				
					<linearGradient id="Path_3536_1_" gradientUnits="userSpaceOnUse" x1="-90.7626" y1="584.0938" x2="-89.7626" y2="584.0938" gradientTransform="matrix(87.8281 0 0 -6.7749 8175.1646 4095.9338)">
					<stop  offset="0" style="stop-color:#FF9085"/>
					<stop  offset="1" style="stop-color:#FB6FBB"/>
				</linearGradient>
				<path id="Path_3536" class="st30" d="M291.5,141.5l-87.8,0.6v-6.3l87.8-0.5V141.5z"/>
				
					<linearGradient id="Path_3537_1_" gradientUnits="userSpaceOnUse" x1="-91.203" y1="584.3475" x2="-90.203" y2="584.3475" gradientTransform="matrix(56.283 0 0 -6.848 5301.1455 4149.4839)">
					<stop  offset="0" style="stop-color:#FF9085"/>
					<stop  offset="1" style="stop-color:#FB6FBB"/>
				</linearGradient>
				<path id="Path_3537" class="st31" d="M224.3,150.7l-56.3,0.6v-6.4l56.3-0.5V150.7z"/>
				<path id="Path_3538" class="st15" d="M250.6,159.1l-62.4,0.8v-6.3l62.4-0.7V159.1z"/>
				
					<linearGradient id="Path_3539_1_" gradientUnits="userSpaceOnUse" x1="-90.7054" y1="609.5649" x2="-90.3134" y2="584.0099" gradientTransform="matrix(79.3921 0 0 -7.4149 7416.1152 4510.9756)">
					<stop  offset="4.000000e-03" style="stop-color:#E38DDD"/>
					<stop  offset="1" style="stop-color:#9571F6"/>
				</linearGradient>
				<path id="Path_3539" class="st32" d="M283,167.2l-79.4,1.3v-6.3l79.4-1.1V167.2z"/>
				
					<linearGradient id="Path_3540_1_" gradientUnits="userSpaceOnUse" x1="-90.8461" y1="586.8066" x2="-89.8461" y2="586.8066" gradientTransform="matrix(79.3921 0 0 -7.6479 7416.1152 4661.2847)">
					<stop  offset="0" style="stop-color:#FF9085"/>
					<stop  offset="1" style="stop-color:#FB6FBB"/>
				</linearGradient>
				<path id="Path_3540" class="st33" d="M283,175.7l-79.4,1.5v-6.3l79.4-1.3V175.7z"/>
				
					<linearGradient id="Path_3541_1_" gradientUnits="userSpaceOnUse" x1="-90.8567" y1="587.275" x2="-89.8567" y2="587.275" gradientTransform="matrix(78.436 0 0 -7.822 7348.6479 4775.3799)">
					<stop  offset="0" style="stop-color:#FF9085"/>
					<stop  offset="1" style="stop-color:#FB6FBB"/>
				</linearGradient>
				<path id="Path_3541" class="st34" d="M300.6,183.9l-78.4,1.7v-6.3l78.4-1.5V183.9z"/>
				
					<linearGradient id="Path_3542_1_" gradientUnits="userSpaceOnUse" x1="-90.8567" y1="587.8553" x2="-89.8567" y2="587.8553" gradientTransform="matrix(78.436 0 0 -8.049 7348.6479 4921.9268)">
					<stop  offset="0" style="stop-color:#FF9085"/>
					<stop  offset="1" style="stop-color:#FB6FBB"/>
				</linearGradient>
				<path id="Path_3542" class="st35" d="M300.6,192.4l-78.4,1.9v-6.3l78.4-1.8V192.4z"/>
				
					<linearGradient id="Path_3543_1_" gradientUnits="userSpaceOnUse" x1="-90.9021" y1="601.8517" x2="-90.3491" y2="570.2727" gradientTransform="matrix(62.3621 0 0 -6.655 5847.9731 3988.1418)">
					<stop  offset="4.000000e-03" style="stop-color:#E38DDD"/>
					<stop  offset="1" style="stop-color:#9571F6"/>
				</linearGradient>
				<path id="Path_3543" class="st36" d="M230.2,107.2l-62.4-0.3v-6.4l62.4,0.4V107.2z"/>
				<path id="Path_3544" class="st12" d="M116.4,42.4L59.7,41v-9.3l56.7,1.6V42.4z"/>
				<path id="Path_3545" class="st15" d="M45.1,40.6l10.7,0.3v-9.3l-10.7-0.3V40.6z"/>
				<path id="Path_3546" class="st15" d="M116.4,55.5l-56.7-1.2V45l56.7,1.3V55.5z"/>
				<path id="Path_3547" class="st15" d="M45.1,54.1l10.7,0.2v-9.3l-10.7-0.3V54.1z"/>
				<path id="Path_3548" class="st15" d="M116.4,68.7l-56.7-0.9v-9.3l56.7,1.1V68.7z"/>
				<path id="Path_3549" class="st15" d="M45.1,67.5l10.7,0.2v-9.3l-10.7-0.2V67.5z"/>
				<path id="Path_3550" class="st12" d="M116.4,162l-99,1.3v-9.4l99-1V162z"/>
				<path id="Path_3551" class="st15" d="M116.4,176.3l-56.7,1V168l56.7-0.9V176.3z"/>
				<path id="Path_3552" class="st15" d="M45.1,177.6l10.7-0.2v-9.3l-10.7,0.2V177.6z"/>
				<path id="Path_3553" class="st15" d="M116.4,189.5l-56.7,1.3v-9.3l56.7-1.1V189.5z"/>
				<path id="Path_3554" class="st15" d="M45.1,191l10.7-0.2v-9.3l-10.7,0.2V191z"/>
				<path id="Path_3555" class="st15" d="M116.4,202.6l-56.7,1.5v-9.3l56.7-1.3V202.6z"/>
				<path id="Path_3556" class="st15" d="M45.1,204.5l10.7-0.3v-9.3l-10.7,0.3V204.5z"/>
				<path id="Path_3557" class="st12" d="M116.4,81.9l-99-1.2v-9.4l99,1.5V81.9z"/>
				<path id="Path_3558" class="st15" d="M116.4,96.2l-56.7-0.4v-9.3l56.7,0.6V96.2z"/>
				<path id="Path_3559" class="st15" d="M45.1,95.7l10.7,0.1v-9.3l-10.7-0.1V95.7z"/>
				<path id="Path_3560" class="st15" d="M116.4,109.4l-56.7-0.2v-9.3l56.7,0.4V109.4z"/>
				<path id="Path_3561" class="st15" d="M45.1,109.1l10.7,0v-9.3l-10.7-0.1V109.1z"/>
				<path id="Path_3562" class="st15" d="M116.4,135.8l-56.7,0.3v-9.3l56.7-0.1V135.8z"/>
				<path id="Path_3563" class="st15" d="M45.1,136.2l10.7-0.1v-9.3l-10.7,0V136.2z"/>
				<path id="Path_3564" class="st15" d="M116.4,149l-56.7,0.5v-9.3l56.7-0.4V149z"/>
				<path id="Path_3565" class="st15" d="M45.1,149.6l10.7-0.1v-9.3l-10.7,0.1V149.6z"/>
				<path id="Path_3566" class="st15" d="M116.4,122.5l-56.7,0v-9.3l56.7,0.1V122.5z"/>
				<path id="Path_3567" class="st15" d="M45.1,122.6l10.7,0v-9.3l-10.7,0V122.6z"/>
				<path id="Path_3568" class="st12" d="M116.4,215.7l-99,3v-9.4l99-2.7V215.7z"/>
				<path id="Path_3569" class="st15" d="M116.4,230l-56.7,2v-9.3l56.7-1.8V230z"/>
				<path id="Path_3570" class="st15" d="M45.1,232.6l10.7-0.4v-9.3l-10.7,0.3V232.6z"/>
				<path id="Path_3571" class="st15" d="M116.4,243.2l-56.7,2.2v-9.3l56.7-2.1V243.2z"/>
				<path id="Path_3572" class="st15" d="M45.1,246l10.7-0.4v-9.3l-10.7,0.4V246z"/>
				<path id="Path_3573" class="st15" d="M116.4,256.3l-56.7,2.5v-9.3l56.7-2.3V256.3z"/>
				<path id="Path_3574" class="st15" d="M45.1,259.5l10.7-0.5v-9.3l-10.7,0.4V259.5z"/>
				<path id="Path_3575" class="st15" d="M128.4,255.9l-2.2,0.1V19.3l2.2,0.1V255.9z"/>
			</g>
			<path id="Path_3576" class="st37" d="M416.7,278.3c-96.1,2-117.7,15.7-145-0.7c-37.5-22.6-20.4-62.8-57-83.9
				c-46-26.5-99,22-122.9-1.6c-23.9-23.6,21.2-79-4.9-140.9C76.4,26.5,58.5,10.3,46.2,1.1L21.3,0C11.8-0.4,4,5.9,4,14.1v295
				c0,8.2,7.8,14.4,17.4,13.8l441.5-26.3c7.1-0.5,12.6-6.3,12.7-13.4v-4.5C462.3,278.3,441.8,277.8,416.7,278.3z"/>
		</g>
	</g>
	<g id="Group_3379" transform="translate(3414.362 1200.699)">
		<g id="Group_3375" transform="translate(0 0)">
			<path id="Path_3577" class="st12" d="M224.4,283.5L9.7,331.9c-5.3,1.2-9.7-2.2-9.7-7.6V8.3C-0.2,3.9,3.3,0.1,7.7,0
				c0.7,0,1.3,0,2,0.2l214.7,36.4c2.9,0.5,5.2,4.1,5.2,8v230.6C229.6,279.1,227.3,282.8,224.4,283.5z"/>
		</g>
		<g id="Group_3376" transform="translate(4.885 0)">
			
				<linearGradient id="Path_3578_1_" gradientUnits="userSpaceOnUse" x1="-308.1487" y1="630.4244" x2="-307.2856" y2="629.3304" gradientTransform="matrix(229.6135 0 0 -332.219 70785.8672 209469.1406)">
				<stop  offset="0" style="stop-color:#FFC444"/>
				<stop  offset="0.996" style="stop-color:#F36F56"/>
			</linearGradient>
			<path id="Path_3578" class="st38" d="M224.4,283.5L9.7,331.9c-5.3,1.2-9.7-2.2-9.7-7.6V8.3C-0.2,3.9,3.3,0.1,7.7,0
				c0.7,0,1.3,0,2,0.2l214.7,36.4c2.9,0.5,5.2,4.1,5.2,8v230.6C229.6,279.1,227.3,282.8,224.4,283.5z"/>
		</g>
		<g id="Group_3377" transform="translate(5.756)" class="st39">
			
				<linearGradient id="Path_3579_1_" gradientUnits="userSpaceOnUse" x1="-309.1537" y1="630.0154" x2="-308.1537" y2="630.0154" gradientTransform="matrix(229.6133 0 0 -332.2202 70985.7812 209469.9219)">
				<stop  offset="0" style="stop-color:#F7C96B"/>
				<stop  offset="1" style="stop-color:#FBAF7B"/>
			</linearGradient>
			<path id="Path_3579" class="st40" d="M196.8,240.6c-26.6-30-8.3-78.6-32.6-91.2c-20.2-10.5-41.8,18.5-61.1,8.6
				C78.2,145,101.4,89,76.7,46C67.9,30.6,50.8,12.9,13.9,0.9L9.7,0.1C5.3-0.8,1.1,2,0.2,6.3C0,6.9,0,7.6,0,8.3v316.1
				c0,5.4,4.4,8.8,9.7,7.6l214.7-48.5c2.9-0.7,5.2-4.4,5.2-8.3v-16C216.4,255.9,205.1,249.9,196.8,240.6z"/>
		</g>
		<path id="Path_3580" class="st41" d="M224.5,52.9L22.1,24.1c-1.8-0.3-3.3,2.1-3.3,5.3v64.8c0,3.2,1.5,5.8,3.3,5.9l202.4,10.3
			c1,0.1,1.9-1.8,1.9-4.2V57.5C226.4,55.1,225.6,53.1,224.5,52.9z"/>
		<path id="Path_3581" class="st42" d="M22.1,100.1l72.4,3.7C94,85.1,92.2,64.3,81.6,46c-3.1-5.4-6.8-10.4-11.1-14.9l-48.4-6.9
			c-1.8-0.3-3.3,2.1-3.3,5.3v64.8C18.8,97.4,20.3,100,22.1,100.1z"/>
		<g transform="matrix(1, 0, 0, 1, -372.1, 0)">
			<path id="Path_3582-2" class="st5" d="M457.5,172.2l-61.8,2.4c-2.6,0.1-4.7-1.9-4.8-4.5c0-0.1,0-0.2,0-0.3v-48.4
				c0-2.6,2-4.7,4.6-4.8c0.1,0,0.1,0,0.2,0l61.8,1.9c2.4,0.2,4.2,2.3,4.1,4.6v44.3C461.7,170,459.9,172,457.5,172.2z"/>
		</g>
		<g transform="matrix(1, 0, 0, 1, -372.1, 0)">
			<path id="Path_3583-2" class="st5" d="M457.5,232.5l-61.8,7.2c-2.3,0.3-4.5-1.3-4.8-3.7c0-0.2,0-0.5,0-0.7V187
				c0-2.7,2.1-5,4.8-5.2l61.8-2.9c2.3,0,4.1,1.8,4.1,4.1c0,0.1,0,0.2,0,0.3v44.3C461.7,229.9,459.9,232.1,457.5,232.5z"/>
		</g>
		<g transform="matrix(1, 0, 0, 1, -372.1, 0)">
			<path id="Path_3584-2" class="st5" d="M457.5,292.8l-61.8,12.1c-2.1,0.5-4.2-0.8-4.7-2.9c-0.1-0.4-0.1-0.8-0.1-1.1v-48.4
				c0-2.8,2.1-5.1,4.8-5.5l61.8-7.8c2.3-0.3,4.1,1.5,4.1,4v44.3C461.6,289.9,459.9,292.1,457.5,292.8z"/>
		</g>
		<g transform="matrix(1, 0, 0, 1, -372.1, 0)">
			<path id="Path_3585-2" class="st5" d="M598.2,265.2l-132.8,26V118.9l132.8,4.1V265.2z"/>
		</g>
		<path id="Path_3586" class="st1" d="M226.1,265.2l-132.8,26v-26.1l132.8-21.4V265.2z"/>
		<g id="Group_3378" transform="translate(153.252 162.456)">
			
				<linearGradient id="Path_3587_1_" gradientUnits="userSpaceOnUse" x1="-458.5881" y1="465.5081" x2="-458.5881" y2="464.5081" gradientTransform="matrix(25.1919 0 0 -53.031 11565.2998 24686.3594)">
				<stop  offset="0" style="stop-color:#6750A0"/>
				<stop  offset="1" style="stop-color:#E4B1C9"/>
			</linearGradient>
			<path id="Path_3587" class="st43" d="M25.2,25.7c0,14.4-5.5,26.6-12.4,27.3C5.8,53.7,0,42.3,0,27.4S5.8,0.2,12.8,0
				C19.7-0.2,25.2,11.3,25.2,25.7z"/>
			<path id="Path_3588" class="st42" d="M7.9,42.3V11.4l14.5,14.4L7.9,42.3z"/>
		</g>
		<path id="Path_3589" class="st42" d="M223.8,257L96.7,280.2V276l127.1-22.4V257z"/>
		<path id="Path_3590" class="st44" d="M133.2,273.5l-36.5,6.6V276l36.5-6.4V273.5z"/>
		<path id="Path_3591" class="st12" d="M134.4,271.3c0,3.3-1.3,6.2-3,6.5s-3-2.1-3-5.5s1.4-6.3,3-6.5S134.4,268,134.4,271.3z"/>
		<path id="Path_3592" class="st45" d="M201.7,240.6c-26.6-30-8.3-78.6-32.6-91.2c-20.2-10.5-41.8,18.5-61.1,8.5
			c-11.4-5.9-12.8-20.6-13.2-39l-1.5,0v172.4l132.8-26v-8.6C216.5,253.1,208.2,247.9,201.7,240.6z"/>
	</g>
	<g id="Group_3380" transform="translate(3109.938 1430.04)">
		<path id="Path_3593" class="st46" d="M160.6,185.8c-0.3,0-0.5-0.2-0.5-0.5c0,0,0,0,0,0V5.8c0-0.3,0.2-0.5,0.5-0.5
			c0.3,0,0.5,0.2,0.5,0.5v179.5C161.1,185.5,160.9,185.8,160.6,185.8C160.6,185.8,160.6,185.8,160.6,185.8z"/>
		<path id="Path_3594" class="st46" d="M112.3,174.5c-0.3,0-0.5-0.2-0.5-0.5l0,0V1.3c0-0.3,0.2-0.5,0.4-0.5c0.3,0,0.5,0.2,0.5,0.4
			c0,0,0,0,0,0V174C112.7,174.3,112.5,174.5,112.3,174.5C112.3,174.5,112.3,174.5,112.3,174.5z"/>
		<path id="Path_3595" class="st46" d="M0.5,182.5c-0.1,0-0.1,0-0.2,0c-0.2-0.1-0.4-0.3-0.3-0.6c0,0,0,0,0,0L64.7,3.8
			c0.1-0.2,0.3-0.4,0.6-0.3c0.2,0.1,0.4,0.3,0.3,0.6c0,0,0,0,0,0L0.9,182.2C0.8,182.4,0.6,182.5,0.5,182.5z"/>
		<path id="Path_3596" class="st46" d="M48.2,196.5c-0.3,0-0.5-0.2-0.5-0.5c0,0,0-0.1,0-0.1l58-187.8c0.1-0.2,0.3-0.4,0.6-0.3
			s0.4,0.3,0.3,0.6l-58,187.8C48.6,196.3,48.4,196.5,48.2,196.5z"/>
		<path id="Path_3597" class="st46" d="M112.8,1.1l48.5,3.6v1.1l-55.4,2.5L64.4,3.2V2.1L112.8,1.1z"/>
		<path id="Path_3598" class="st47" d="M112.8,0l48.5,4.7l-55.4,2.5L64.4,2.1L112.8,0z"/>
		<path id="Path_3599" class="st46" d="M60.7,155.8c0,0-0.1,0-0.1,0l-46.2-12.1c-0.2-0.1-0.4-0.3-0.4-0.5c0.1-0.2,0.3-0.4,0.5-0.4
			c0,0,0,0,0,0l46.2,12.1c0.2,0.1,0.4,0.3,0.4,0.5C61.2,155.7,61,155.8,60.7,155.8L60.7,155.8z"/>
		<path id="Path_3600" class="st46" d="M73.8,113.3C73.8,113.3,73.8,113.3,73.8,113.3l-45.4-8c-0.2,0-0.4-0.3-0.4-0.5
			c0-0.2,0.3-0.4,0.5-0.4l45.3,8c0.2,0.1,0.4,0.3,0.3,0.5C74.2,113.2,74,113.3,73.8,113.3L73.8,113.3z"/>
		<path id="Path_3601" class="st46" d="M87.4,69.4C87.4,69.4,87.4,69.4,87.4,69.4l-43.9-5.7c-0.2,0-0.4-0.3-0.4-0.5c0,0,0,0,0,0
			c0-0.2,0.3-0.4,0.5-0.4l43.9,5.7c0.2,0,0.4,0.3,0.4,0.5C87.9,69.3,87.7,69.4,87.4,69.4L87.4,69.4z"/>
		<path id="Path_3602" class="st46" d="M96.1,39C96.1,39,96.1,39,96.1,39l-41.3-6.5c-0.3,0-0.4-0.3-0.4-0.5c0-0.3,0.3-0.4,0.5-0.4
			c0,0,0,0,0,0l41.2,6.5c0.2,0,0.4,0.3,0.4,0.5C96.5,38.8,96.4,39,96.1,39L96.1,39z"/>
	</g>
	<g id="Group_3384" transform="translate(3224.117 1280.648)">
		
			<linearGradient id="Path_3603_1_" gradientUnits="userSpaceOnUse" x1="-113.492" y1="548.1747" x2="-112.492" y2="548.1747" gradientTransform="matrix(107.8252 0 0 -67.7506 12237.2998 37173.0391)">
			<stop  offset="0" style="stop-color:#FFC444"/>
			<stop  offset="0.996" style="stop-color:#F36F56"/>
		</linearGradient>
		<path id="Path_3603" class="st48" d="M104.1,67.7L0.6,67.3c-0.5,0-0.7-0.7-0.4-1.1l10.5-10.4V9.5c-0.1-1.8,1.3-3.4,3-3.6L104.1,0
			c1.9-0.1,3.6,1.3,3.7,3.2c0,0.1,0,0.2,0,0.3V64C107.8,66.1,106.2,67.7,104.1,67.7C104.1,67.7,104.1,67.7,104.1,67.7z"/>
		<g id="Group_3383" transform="translate(18.273 12.268)">
			<g id="Group_3381" transform="translate(0 0.439)">
				<path id="Path_3604" class="st1" d="M18.9,2.5L0,3.5V1.1L18.9,0V2.5z"/>
				<path id="Path_3605" class="st1" d="M18.9,7.5L0,8.4V6l18.9-1V7.5z"/>
				<path id="Path_3606" class="st1" d="M18.9,15.5L0,16.2v-2.5L18.9,13V15.5z"/>
				<path id="Path_3607" class="st1" d="M18.9,20.5L0,21.1v-2.5L18.9,18V20.5z"/>
				<path id="Path_3608" class="st1" d="M80.4,40.7L0,41.6v-2.5l80.4-1.1V40.7z"/>
				<path id="Path_3609" class="st1" d="M80.4,46.1L0,46.5V44l80.4-0.6V46.1z"/>
				<path id="Path_3610" class="st1" d="M18.9,28.4L0,28.9v-2.5l18.9-0.5V28.4z"/>
				<path id="Path_3611" class="st1" d="M18.9,33.5L0,33.8v-2.5l18.9-0.4V33.5z"/>
			</g>
			<g id="Group_3382" transform="translate(26.245)">
				<path id="Path_3612" class="st1" d="M54.1,33L0,34V0l0.5,0v33.5l53.6-1V33z"/>
				<path id="Path_3613" class="st1" d="M7.1,24.3l-0.4-0.4L17.4,12l10.8,3.5L39,5.4l11.2,5.3l-0.2,0.5L39.1,6.1l-10.8,10l-10.7-3.5
					L7.1,24.3z"/>
				
					<linearGradient id="Path_3614_1_" gradientUnits="userSpaceOnUse" x1="-174.2057" y1="502.1681" x2="-181.6227" y2="480.4691" gradientTransform="matrix(3.4475 0 0 -3.6631 616.6886 1834.9075)">
					<stop  offset="0" style="stop-color:#FF9085"/>
					<stop  offset="1" style="stop-color:#FB6FBB"/>
				</linearGradient>
				<path id="Path_3614" class="st49" d="M8.6,24.1c0,1-0.7,1.8-1.7,1.9c-0.9,0-1.7-0.8-1.7-1.7c0,0,0,0,0-0.1c0-1,0.7-1.8,1.7-1.9
					C7.8,22.3,8.6,23.1,8.6,24.1C8.6,24,8.6,24.1,8.6,24.1z"/>
				
					<linearGradient id="Path_3615_1_" gradientUnits="userSpaceOnUse" x1="-175.0327" y1="498.9992" x2="-182.4007" y2="477.2082" gradientTransform="matrix(3.5261 0 0 -3.7062 639.6154 1846.3313)">
					<stop  offset="0" style="stop-color:#FF9085"/>
					<stop  offset="1" style="stop-color:#FB6FBB"/>
				</linearGradient>
				<path id="Path_3615" class="st50" d="M19.2,12.3c0,1-0.8,1.9-1.8,1.9c-1,0-1.7-0.7-1.8-1.7c0,0,0-0.1,0-0.1c0-1,0.8-1.9,1.8-1.9
					c1,0,1.7,0.7,1.8,1.7C19.2,12.2,19.2,12.3,19.2,12.3z"/>
				
					<linearGradient id="Path_3616_1_" gradientUnits="userSpaceOnUse" x1="-174.5814" y1="499.559" x2="-181.8654" y2="477.764" gradientTransform="matrix(3.6079 0 0 -3.7483 663.1867 1872.4789)">
					<stop  offset="0" style="stop-color:#FF9085"/>
					<stop  offset="1" style="stop-color:#FB6FBB"/>
				</linearGradient>
				<path id="Path_3616" class="st51" d="M30,15.8c0,1-0.8,1.9-1.8,1.9c-1,0-1.8-0.7-1.8-1.7c0,0,0-0.1,0-0.1c0-1,0.8-1.9,1.8-1.9
					C29.2,13.9,30,14.7,30,15.8C30,15.7,30,15.7,30,15.8z"/>
				
					<linearGradient id="Path_3617_1_" gradientUnits="userSpaceOnUse" x1="-175.2282" y1="496.8952" x2="-182.4612" y2="475.0152" gradientTransform="matrix(3.6895 0 0 -3.7947 686.8043 1887.3839)">
					<stop  offset="0" style="stop-color:#FF9085"/>
					<stop  offset="1" style="stop-color:#FB6FBB"/>
				</linearGradient>
				<path id="Path_3617" class="st52" d="M40.9,5.7c0,1-0.8,1.9-1.8,2c-1,0-1.8-0.7-1.8-1.7c0,0,0-0.1,0-0.1c0-1,0.8-1.9,1.8-2
					c1,0,1.8,0.7,1.8,1.7C40.9,5.6,40.9,5.6,40.9,5.7z"/>
				
					<linearGradient id="Path_3618_1_" gradientUnits="userSpaceOnUse" x1="-174.6368" y1="497.9179" x2="-181.7828" y2="476.045" gradientTransform="matrix(3.7764 0 0 -3.8416 711.4417 1917.8445)">
					<stop  offset="0" style="stop-color:#FF9085"/>
					<stop  offset="1" style="stop-color:#FB6FBB"/>
				</linearGradient>
				<path id="Path_3618" class="st53" d="M51.9,10.9c0,1.1-0.8,1.9-1.9,2c-1,0-1.8-0.7-1.9-1.7c0,0,0-0.1,0-0.1c0-1.1,0.8-1.9,1.9-2
					c1,0,1.8,0.7,1.9,1.7C51.9,10.8,51.9,10.9,51.9,10.9z"/>
			</g>
		</g>
	</g>
	<g id="Group_3387" transform="translate(3197.938 1301.615)">
		<g id="Group_3386" transform="translate(0 0)">
			
				<linearGradient id="Path_3619_1_" gradientUnits="userSpaceOnUse" x1="-147.6964" y1="601.8338" x2="-146.3794" y2="599.4518" gradientTransform="matrix(9.1169 0 0 -6.3456 920.3488 3232.4663)">
				<stop  offset="0" style="stop-color:#FFC444"/>
				<stop  offset="0.996" style="stop-color:#F36F56"/>
			</linearGradient>
			<path id="Path_3619" class="st54" d="M61.2,35.3l2.3-2.5c0.6-0.7,1.3-1.3,2-1.8c1.8-1.1,4.4-1.7,4.7-1c0.4,0.7-2,2.9-2.8,3.6
				L64,36.1L61.2,35.3z"/>
			<path id="Path_3620" class="st55" d="M12.3,18.4c-0.6,0.2-10.1,4-12,13.9c-0.2,0.8-1.7,9.3,4.1,15.3c6.5,6.7,18.9,6.6,23.8,0.9
				c1-1.2,1.7-2.5,2.1-4L29,41c-1.3-1.4-3-2.3-4.9-2.7c-2.8-0.7-5,0.6-6.6-0.8c-0.8-0.8-1.2-1.8-1.2-2.8c-0.5-3.3,1.3-5.4,1.5-7.4
				c0.1-1.5,0.6-4.9-1.4-7.1C15.3,19.2,13.8,18.5,12.3,18.4z"/>
			
				<linearGradient id="Path_3621_1_" gradientUnits="userSpaceOnUse" x1="-331.8966" y1="774.8618" x2="-330.8456" y2="773.4128" gradientTransform="matrix(3.689 0 0 -2.3817 393.6935 1229.2529)">
				<stop  offset="0" style="stop-color:#444B8C"/>
				<stop  offset="0.996" style="stop-color:#26264F"/>
			</linearGradient>
			<path id="Path_3621" class="st56" d="M8.6,128.5c-0.1-0.6-2.1-1.2-3-0.3c-0.5,0.4-0.8,1.2-0.5,1.6c0.1,0.1-0.3,0.4,0.1,0.4
				C6.5,130.1,8.8,129.1,8.6,128.5z"/>
			
				<linearGradient id="Path_3622_1_" gradientUnits="userSpaceOnUse" x1="-109.8772" y1="531.2996" x2="-109.8772" y2="532.6516" gradientTransform="matrix(2.9109 0 0 -5.002 325.8578 2614.1763)">
				<stop  offset="0" style="stop-color:#FFC444"/>
				<stop  offset="0.996" style="stop-color:#F36F56"/>
			</linearGradient>
			<path id="Path_3622" class="st57" d="M6.6,128.7l-2-0.3c0.9-1.1,0.8-4.7,0.8-4.7l2.1,0.5c0,0-0.2,1-0.7,2.4
				C6.7,127.3,6.6,128,6.6,128.7z"/>
			
				<linearGradient id="Path_3623_1_" gradientUnits="userSpaceOnUse" x1="-405.0018" y1="842.4464" x2="-403.6698" y2="840.6584" gradientTransform="matrix(2.9189 0 0 -1.9297 325.8719 990.1016)">
				<stop  offset="0" style="stop-color:#444B8C"/>
				<stop  offset="0.996" style="stop-color:#26264F"/>
			</linearGradient>
			<path id="Path_3623" class="st58" d="M6.8,128.5c0,0-2.4-0.6-2.7-0.1s-0.5,1.8,1.1,1.7S6.9,128.9,6.8,128.5z"/>
			
				<linearGradient id="Path_3624_1_" gradientUnits="userSpaceOnUse" x1="-341.2863" y1="750.0336" x2="-340.1914" y2="748.7256" gradientTransform="matrix(3.5464 0 0 -2.6398 409.2042 1368.5513)">
				<stop  offset="0" style="stop-color:#444B8C"/>
				<stop  offset="0.996" style="stop-color:#26264F"/>
			</linearGradient>
			<path id="Path_3624" class="st59" d="M36.4,130.8c-0.2-0.6-2.2-0.9-3.1,0.1c-0.4,0.5-0.6,1.3-0.3,1.7c0.1,0.1-0.3,0.4,0.1,0.4
				C34.4,132.7,36.6,131.4,36.4,130.8z"/>
			
				<linearGradient id="Path_3625_1_" gradientUnits="userSpaceOnUse" x1="-116.3036" y1="495.1518" x2="-116.3036" y2="496.5668" gradientTransform="matrix(2.29 0 0 -4.776 299.7987 2497.1965)">
				<stop  offset="0" style="stop-color:#FFC444"/>
				<stop  offset="0.996" style="stop-color:#F36F56"/>
			</linearGradient>
			<path id="Path_3625" class="st60" d="M34.4,131.3h-2c0.8-1.2,0.1-4.8,0.1-4.8l2.2,0.2c0,0-0.1,1-0.3,2.5
				C34.2,129.9,34.3,130.6,34.4,131.3z"/>
			
				<linearGradient id="Path_3626_1_" gradientUnits="userSpaceOnUse" x1="-87.2906" y1="527.3911" x2="-88.6026" y2="527.5541" gradientTransform="matrix(38.5366 0 0 -76.1549 3414.0281 40259.9727)">
				<stop  offset="0" style="stop-color:#FF9085"/>
				<stop  offset="1" style="stop-color:#FB6FBB"/>
			</linearGradient>
			<path id="Path_3626" class="st61" d="M39.6,54.1c1.4,4.7,2.5,9.6,3.2,14.5c2.5,18-2.8,18.6-1.8,38.6c0.3,6.4-5.5,21.1-6,21.4
				c-0.3,0-0.5,0-0.8,0c-0.7,0-1.4-0.1-2.1-0.3c-0.9-0.2-4.3-9.2-3.5-14.6c0.5-3.8,0.4-7.9,0.1-16C28.6,96.4,25.3,72,25.3,72
				c-1,9-2.2,16.7-3.2,22.7c-3.3,19.1-14,30.7-14.6,30.9c-0.6,0.2-1.3,0.2-1.9-0.1c-0.2-0.1-0.4-0.3-0.5-0.6
				c-0.3-0.2,0.1-19.1,3.4-33.3c4.7-20.6,2.7-25.4,4.2-34.6C13.8,49,39.6,54.1,39.6,54.1z"/>
			
				<linearGradient id="Path_3627_1_" gradientUnits="userSpaceOnUse" x1="-134.4224" y1="550.3189" x2="-136.0524" y2="551.1809" gradientTransform="matrix(33.3225 0 0 -43.8376 2965.7083 23093.1758)">
				<stop  offset="0" style="stop-color:#FFC444"/>
				<stop  offset="0.996" style="stop-color:#F36F56"/>
			</linearGradient>
			<path id="Path_3627" class="st62" d="M20.5,16.8c3.1-0.1,10.4-1.2,14.4,2.4c0.1,0.1-0.7,0.5-0.3,1c1.1,1.3,2,2.6,2.8,4
				c1,1.9,1.8,3.8,2.4,5.9c1,3.3,1.6,6.8,1.9,10.2c0.7,9.6,0,14-0.6,17C35,60,28.4,61,22,60c-3.3-0.5-6.5-1.5-9.4-3.1
				C14.8,50,13,46.4,12.2,43C11,38.2,11,38.5,10,34.7c-1.6-6.3-1.9-12.8-0.8-14.1C12.2,17,17.7,16.9,20.5,16.8z"/>
			
				<linearGradient id="Path_3628_1_" gradientUnits="userSpaceOnUse" x1="-372.9133" y1="789.8638" x2="-371.5533" y2="788.0868" gradientTransform="matrix(2.8528 0 0 -1.9425 347.9846 999.6655)">
				<stop  offset="0" style="stop-color:#444B8C"/>
				<stop  offset="0.996" style="stop-color:#26264F"/>
			</linearGradient>
			<path id="Path_3628" class="st63" d="M34.5,131c0,0-2.5-0.2-2.7,0.3s-0.2,1.8,1.3,1.6S34.7,131.4,34.5,131z"/>
			<g id="Group_3385" transform="translate(15.702)">
				
					<linearGradient id="Path_3629_1_" gradientUnits="userSpaceOnUse" x1="-106.3111" y1="517.9936" x2="-105.7931" y2="519.0906" gradientTransform="matrix(15.5898 0 0 -14.3668 1665.0161 7460.4326)">
					<stop  offset="0" style="stop-color:#FFC444"/>
					<stop  offset="0.996" style="stop-color:#F36F56"/>
				</linearGradient>
				<path id="Path_3629" class="st64" d="M13.6,13.2c0.6-1.2,0.8-2.6,0.4-3.9c-0.4-1.7-0.6-2-0.9-2.3l-0.4-0.5l-0.1,0
					c-0.5-0.3-1.1-0.5-1.7-0.6c-0.8,0-2.4,2.8-3.4,7.3c-0.1,0.2-0.2,0.3-0.2,0.5c-0.5,1-0.9,2-1.2,3C0.8,17,0,17.6,0,18
					c-0.1,0.8,3,1.7,5.4,2c5.1,0.7,10.3-0.6,10.2-1.5c0-0.4-1-0.9-5.3-1.5c0.1-0.7,0.2-1.4,0.3-2.1C10.9,14.7,12.9,14.4,13.6,13.2z"
					/>
				<path id="Path_3630" class="st65" d="M14.7,5.6c-0.3,1.1-0.9,2.1-1.8,2.8c-0.2,0.1-0.4,0.2-0.6,0.4c0,0-0.1,0.1-0.1,0.1
					c-0.5,0.8,0.6,2.1,0.2,2.4c-0.3,0.2-1.1-0.4-1.3-0.2s0.5,0.9,0.3,1.1c-0.1,0.2-0.6-0.1-0.9,0.1c-0.2,0.1-0.2,0.2-0.5,0.7
					c-0.1,0.2-0.3,0.4-0.5,0.6c-0.7,0.7-2.1,0.6-2.2,0.2c0-0.1,0-0.2,0-0.5c0-0.2,0-0.4-0.1-0.7c-0.3-0.6-0.8-1.2-1.3-1.7
					c-0.6-0.7-1-1.5-1.2-2.3c0-0.1,0-0.2,0-0.2C4.6,7.3,5,6.2,5.7,5.2c1.2-1.3,2.7-0.1,4.4-1.3C12.2,2.6,11.9,0,12.8,0
					C13.9,0,15.3,3.1,14.7,5.6z"/>
				
					<linearGradient id="Path_3631_1_" gradientUnits="userSpaceOnUse" x1="-1064.4937" y1="1202.5481" x2="-1048.4917" y2="1189.3011" gradientTransform="matrix(1.3193 0 0 -1.9956 214.8938 907.4667)">
					<stop  offset="0" style="stop-color:#FFC444"/>
					<stop  offset="0.996" style="stop-color:#F36F56"/>
				</linearGradient>
				<path id="Path_3631" class="st66" d="M11.9,10.9c-0.2-0.5-0.9-0.3-1.1,0.3c-0.2,0.6,0.2,1.2,0.8,1.4c0,0,0,0,0.1,0
					C12.3,12.7,12.2,11.7,11.9,10.9z"/>
			</g>
			<path id="Path_3632" class="st67" d="M13.6,52.6L13.6,52.6c-0.1,0-0.1-0.1-0.1-0.1c0.3-2.7-0.1-5.4-0.9-7.9
				c-0.2-0.5-0.3-1-0.4-1.5c-0.7-2.7-1-3.8-1.3-4.9c-0.2-0.7-0.4-1.5-0.7-2.7c0-0.1,0-0.1,0.1-0.1c0.1,0,0.1,0,0.1,0.1
				c0.3,1.3,0.5,2,0.7,2.7c0.3,1.1,0.6,2.2,1.3,4.9c0.1,0.5,0.3,1,0.4,1.5c0.9,2.6,1.2,5.3,0.9,8C13.7,52.6,13.6,52.6,13.6,52.6z"/>
			<path id="Path_3633" class="st65" d="M27.6,9.9l0.5,1.2c0,0,0.5,1.4,1.2,0.9c0.5-0.4,0.6-0.4,0.7-0.4c0,0,0,0,0,0s0-0.3,0-0.5
				c0.2,0.5,0.3,1,0.3,1.6c0.1,0.7-0.1,1.4-0.5,1.9c-0.4,0.4-0.9,0.6-1.4,0.6c-0.5-0.1-1-0.3-1.4-0.5c0.6-0.2,1.1-0.5,1.6-0.8
				c0.2-0.6-0.5-1.2-0.8-2.6C27.6,10.8,27.6,10.3,27.6,9.9z"/>
			
				<linearGradient id="Path_3634_1_" gradientUnits="userSpaceOnUse" x1="-118.1849" y1="550.4969" x2="-119.8509" y2="551.9679" gradientTransform="matrix(36.7112 0 0 -28.9097 3278.6465 15182.3691)">
				<stop  offset="0" style="stop-color:#FFC444"/>
				<stop  offset="0.996" style="stop-color:#F36F56"/>
			</linearGradient>
			<path id="Path_3634" class="st68" d="M62.4,33.6c0.9,0.7,1.6,1.5,2.1,2.6c-1.4,3.3-3.7,6.2-6.7,8.3C51,49,42,48.8,35.3,44
				c-7.9-6-9.2-17.5-5.9-22.5c0.4-0.6,1.6-2.4,3.6-2.7c1.2-0.1,2.9,0.4,5.5,3.5c5.5,6.4,3.6,10.4,6.8,12.3
				C50.2,37.4,57.5,30.1,62.4,33.6z"/>
			<path id="Path_3635" class="st67" d="M40.3,46.7C40.3,46.7,40.3,46.7,40.3,46.7c-0.1,0-7.8-1.8-11.3-11.4c0-0.1,0-0.1,0.1-0.2
				c0,0,0,0,0,0c0.1,0,0.1,0,0.2,0.1c3.4,9.5,11,11.2,11.1,11.2c0.1,0,0.1,0.1,0.1,0.1C40.4,46.7,40.3,46.7,40.3,46.7L40.3,46.7z"/>
		</g>
	</g>
	<g id="Group_3394" transform="translate(3142.831 1427.613)">
		<g id="Group_3390" transform="translate(0 91.846)">
			
				<linearGradient id="Path_3636_1_" gradientUnits="userSpaceOnUse" x1="-37.3148" y1="248.4027" x2="-37.1358" y2="242.7677" gradientTransform="matrix(9.8999 0 0 -3.9927 442.228 1208.8728)">
				<stop  offset="0" style="stop-color:#311944"/>
				<stop  offset="1" style="stop-color:#A03976"/>
			</linearGradient>
			<path id="Path_3636" class="st69" d="M63.1,123.6c0,0,7.4,2.6,7.5,3.1s-4.6,0.2-6.5,0.5s-3.5-0.2-3.4-1s0.6-2.9,0.6-2.9
				L63.1,123.6z"/>
			
				<linearGradient id="Path_3637_1_" gradientUnits="userSpaceOnUse" x1="-56.5734" y1="245.322" x2="-56.6944" y2="251.735" gradientTransform="matrix(2.6611 0 0 -3.6133 213.4707 1087.9719)">
				<stop  offset="0" style="stop-color:#FFC444"/>
				<stop  offset="0.996" style="stop-color:#F36F56"/>
			</linearGradient>
			<path id="Path_3637" class="st70" d="M63.1,120.9l-0.2,3.2c-0.6,0.3-1.3,0.3-1.9,0.1l-0.6-3.5L63.1,120.9z"/>
			
				<linearGradient id="Path_3638_1_" gradientUnits="userSpaceOnUse" x1="-42.3681" y1="299.6824" x2="-42.1021" y2="296.5354" gradientTransform="matrix(6.6309 0 0 -7.147 307.1848 2194.4392)">
				<stop  offset="0" style="stop-color:#311944"/>
				<stop  offset="1" style="stop-color:#A03976"/>
			</linearGradient>
			<path id="Path_3638" class="st71" d="M29.8,123.9l-0.7,1.4c-0.2,0.4-0.2,0.8-0.1,1.3c0.4,1.1,1.1,3.2,1.4,3.7
				c0.4,0.7,5,0.8,5,0.8s0.4-0.6-0.7-1.2s-1.6-0.7-2.1-1.7c-0.4-1.3-0.7-2.6-0.9-3.9L29.8,123.9z"/>
			
				<linearGradient id="Path_3639_1_" gradientUnits="userSpaceOnUse" x1="-50.9046" y1="267.6868" x2="-50.9986" y2="272.1698" gradientTransform="matrix(3.429 0 0 -5.1963 206.7099 1581.6111)">
				<stop  offset="0" style="stop-color:#FFC444"/>
				<stop  offset="0.996" style="stop-color:#F36F56"/>
			</linearGradient>
			<path id="Path_3639" class="st72" d="M32.9,120.2c-0.6,1.6-1,3.2-1.4,4.9c0,0-0.4,0.7-1.4-0.2s-0.4-0.4-0.4-0.4l-0.2-4.4
				L32.9,120.2z"/>
			
				<linearGradient id="Path_3640_1_" gradientUnits="userSpaceOnUse" x1="-143.8936" y1="309.4138" x2="-143.0146" y2="309.4138" gradientTransform="matrix(19.5996 0 0 -69.2126 732.3263 21502.998)">
				<stop  offset="0" style="stop-color:#AA80F9"/>
				<stop  offset="0.996" style="stop-color:#6165D7"/>
			</linearGradient>
			<path id="Path_3640" class="st73" d="M61.5,56.5c1.2,9.5,2.1,19.8,2.5,30.9c0.5,12.5,0.2,24.1-0.5,34.7c-0.6,0.1-1.2,0.1-1.8,0.2
				c-0.4,0-0.9,0-1.3,0c-1.3-2.7-2.4-5.4-3.4-8.2c-1.1-3.2-2-6.4-2.7-9.7c-2.3-10.7-0.8-11.7-2.6-19.6c-1.6-7-3-7.1-5.5-17.1
				c-2.7-10.7-1.5-12.5-0.9-13.1C47.9,51.8,54.5,53,61.5,56.5z"/>
			
				<linearGradient id="Path_3641_1_" gradientUnits="userSpaceOnUse" x1="-146.4105" y1="309.4137" x2="-145.5125" y2="309.4137" gradientTransform="matrix(19.1704 0 0 -69.2095 718.7781 21502.0098)">
				<stop  offset="0" style="stop-color:#AA80F9"/>
				<stop  offset="0.996" style="stop-color:#6165D7"/>
			</linearGradient>
			<path id="Path_3641" class="st74" d="M45.4,54.6c2.4-2.6,8.5-1.7,15.1,1.4c-6.6,8.5-6.9,13.6-5.8,16.8c1.3,3.6,4.4,4.5,4.7,8.5
				c0.4,5-4,6.7-3.4,12c0.4,3.5,2.4,3.3,3.2,7.6c1,5.1-1.4,7.1-0.3,10.8c0.5,1.6,1.7,3.6,4.9,5.6c-0.1,1.6-0.2,3.1-0.3,4.7
				c-0.6,0.1-1.2,0.1-1.8,0.2c-0.4,0-0.9,0-1.3,0c-1.3-2.7-2.4-5.4-3.4-8.2c-1.1-3.2-2-6.4-2.7-9.7c-2.3-10.7-0.8-11.7-2.6-19.6
				c-1.6-7-3-7.1-5.5-17.1C43.6,57,44.8,55.2,45.4,54.6z"/>
			
				<linearGradient id="Path_3642_1_" gradientUnits="userSpaceOnUse" x1="-103.4955" y1="309.4227" x2="-102.3505" y2="309.4227" gradientTransform="matrix(30.2991 0 0 -69.4785 1052.1224 21585.9297)">
				<stop  offset="0" style="stop-color:#AA80F9"/>
				<stop  offset="0.996" style="stop-color:#6165D7"/>
			</linearGradient>
			<path id="Path_3642" class="st75" d="M57,56.7C45.5,77,37.5,99,33.1,121.9c-0.6,0.4-1.3,0.5-2.1,0.5c-0.9-0.1-1.8-0.4-2.5-1.1
				c-1.2-4.9-1.9-10-1.9-15.1c0-3.9,0.3-7.8,1.2-11.6c1.2-5.7,2.4-6.1,4.1-12.2c1.8-6.3,1.1-7.8,2.7-15.6c1-4.7,2.2-9.3,3.8-13.8
				L57,56.7z"/>
			
				<linearGradient id="Path_3643_1_" gradientUnits="userSpaceOnUse" x1="-31.9689" y1="309.495" x2="-32.2709" y2="308.53" gradientTransform="matrix(69.7576 0 0 -60.3943 2282.5491 18708.7461)">
				<stop  offset="0" style="stop-color:#FFC444"/>
				<stop  offset="0.996" style="stop-color:#F36F56"/>
			</linearGradient>
			<path id="Path_3643" class="st76" d="M81.3,41.6c0.1,2.2-3.3,4.5-6.2,5.4c-6.7,2-15.2-2.3-19.4-7.5c-0.8-1-1.8-2.3-2-2.1
				c-0.4,0.3,4.3,6.7,6.8,14.3c1.3,3.9,1.2,5.7,3.1,8.2c0.4,0.6,1,1.1,0.9,1.9c-0.3,1.8-4.3,2.6-7,3.2c-2.8,0.5-5.6,0.9-8.4,1
				c-4.4,0.3-4.7,0.1-5.7,0.7c-2.9,1.8-2.4,5.3-4.6,6c-1.9,0.6-4-1.4-4.7-2c-3.5-3.2-3.7-7.5-4.7-11.8c-2.2-9.9-8.6-20.3-14.5-26.8
				c-1.8-2-3-3-3.3-4.9c-0.7-5.7,7.8-12.8,15.3-14.2c3.1-0.5,6.2-0.7,9.3-0.6c1.4,0,2.9,0.1,4.5,0.2c3.9,0.3,6.6,0.6,9.5,1.6
				c11.5,4.1,10.1,15.5,22.7,22.2C77.2,38.5,81.2,39.2,81.3,41.6z"/>
			
				<linearGradient id="Path_3644_1_" gradientUnits="userSpaceOnUse" x1="-32.8664" y1="309.186" x2="-33.5214" y2="308.02" gradientTransform="matrix(32.2039 0 0 -49.9424 1085.5509 15449.3623)">
				<stop  offset="0" style="stop-color:#FFC444"/>
				<stop  offset="0.996" style="stop-color:#F36F56"/>
			</linearGradient>
			<path id="Path_3644" class="st77" d="M20.9,65.9c-3,0.5-9.8,1.3-15-2.8C-2.7,56.4,0,42,2.3,35.7c2.6-7.2,7.3-11.6,10.2-14.2
				c3.6-3.3,5.8-5.3,8.6-5.1c7.4,0.4,13.7,14.9,10.1,19.5c-1.2,1.5-2.5,0.8-6.2,2.4c-1.2,0.5-10.1,4.2-11.1,11.2
				c-0.7,4.8,2.6,10.1,8.1,13.4C21.5,63.8,21.2,64.8,20.9,65.9z"/>
			
				<linearGradient id="Path_3645_1_" gradientUnits="userSpaceOnUse" x1="-35.8292" y1="238.3865" x2="-35.8292" y2="239.7875" gradientTransform="matrix(14.4866 0 0 -9.9392 551.9566 2948.7949)">
				<stop  offset="0" style="stop-color:#FFC444"/>
				<stop  offset="0.996" style="stop-color:#F36F56"/>
			</linearGradient>
			<path id="Path_3645" class="st78" d="M32.7,6.4C32.5,8,32.1,9.6,31.5,11c-0.8,1.8-4.9,2.8-5.7,3.1s1.4,1.7,3.7,2s9,0.1,10.2-0.7
				s-0.9-0.9-2.6-1.5s-2.4-4-2.1-5.4S32.7,6.4,32.7,6.4z"/>
			<g id="Group_3388" transform="translate(30.622)">
				
					<linearGradient id="Path_3646_1_" gradientUnits="userSpaceOnUse" x1="-89.4376" y1="333.676" x2="-90.2116" y2="335.295" gradientTransform="matrix(7.6333 0 0 -9.2708 543.7048 2733.6992)">
					<stop  offset="0" style="stop-color:#444B8C"/>
					<stop  offset="0.996" style="stop-color:#3E4177"/>
				</linearGradient>
				<path id="Path_3646" class="st79" d="M6.3,5.2C7.8,3.9,8,0.7,7,0.1C6.8-0.1,6.5,0,2.9,1.8C1.2,2.7,0.3,3.2,0.1,4
					C-0.1,4.6,0,5.2,0.3,5.7c0.2,0.4,0.5,0.8,0.9,1.2c0.4,0.5,0.4,0.5,0.6,0.7C2.3,8.2,3,8.8,3.7,9.3c0-0.4,0.1-0.7,0.2-1.1
					c0.1-0.5,0.3-0.9,0.6-1.3C5,6.2,5.6,5.7,6.3,5.2z"/>
				
					<linearGradient id="Path_3647_1_" gradientUnits="userSpaceOnUse" x1="-125.7972" y1="171.0456" x2="-124.6722" y2="173.4226" gradientTransform="matrix(5.782 0 0 -5.3118 429.5836 1502.0216)">
					<stop  offset="0" style="stop-color:#FFC444"/>
					<stop  offset="0.996" style="stop-color:#F36F56"/>
				</linearGradient>
				<path id="Path_3647" class="st80" d="M2.4,8.6c0.8,0.9,2,1.3,3.2,1.1C7.3,9.4,7,5.4,5.8,4.7C5.2,4.4,4.6,4.4,4,4.7
					C3.6,4.8,3.5,5,3,5.2C2.4,5.4,2.3,5.4,2.1,5.6C1.9,5.8,1.8,6.2,2.3,7.3C2.1,7,1.6,7,1.3,7.1C1.2,7.2,1.1,7.3,1.1,7.4
					C0.9,7.9,1.4,8.4,2.4,8.6z"/>
			</g>
			
				<linearGradient id="Path_3648_1_" gradientUnits="userSpaceOnUse" x1="-47.2679" y1="307.8984" x2="-46.3989" y2="307.8984" gradientTransform="matrix(58.438 0 0 -41.9106 1919.4852 12955.8975)">
				<stop  offset="0" style="stop-color:#FFC444"/>
				<stop  offset="0.996" style="stop-color:#F36F56"/>
			</linearGradient>
			<path id="Path_3648" class="st81" d="M54.5,60.4c-3.6-1.9-4.3-4-8.3-5.1c-5.1-1.5-7.3,1.2-10-0.6c-3.1-2.1-0.9-6.4-3.7-13.3
				c-0.5-1.2-4.1-10.1-10.7-10.6c-3.1-0.3-7,1.2-8.3,3.9c-1,2.1,0.2,3.5-1,5.9s-3.1,2-4.8,4c-2.7,3.2-2.6,9.4,0.4,12.7
				c1.4,1.5,3.1,2,6.2,3c1.7,0.5,3.5,0.9,5.2,1c-4.1-3.3-6.4-7.7-5.8-11.8c0.6-4.3,4.3-7.4,7.3-9.2c3.8,5.7,6.6,12,8.2,18.6
				c0.9,4.2,1.2,8.5,4.7,11.8c0.7,0.6,2.8,2.6,4.7,2c2.2-0.7,1.7-4.2,4.6-6c1-0.6,1.3-0.4,5.7-0.7c2.8-0.2,5.6-0.5,8.4-1
				c2.5-0.5,5.9-1.2,6.8-2.6C60.9,62.5,57.5,61.9,54.5,60.4z"/>
			
				<linearGradient id="Path_3649_1_" gradientUnits="userSpaceOnUse" x1="-63.309" y1="301.1826" x2="-62.495" y2="301.1826" gradientTransform="matrix(28.8 0 0 -15.25 1029.7372 4632.8433)">
				<stop  offset="0" style="stop-color:#FFC444"/>
				<stop  offset="0.996" style="stop-color:#F36F56"/>
			</linearGradient>
			<path id="Path_3649" class="st82" d="M71.7,42.1c-5.1-0.7-7.1-0.5-9.7-2.2c-4.4-2.9-5.5-7.9-7.8-7.6c-1.1,0.1-1.9,1.4-2.5,2.5
				l2.1,2.7c0,0,0-0.1,0-0.1c0.2-0.1,1.1,1.1,2,2.1c4.3,5.2,12.7,9.5,19.4,7.5c2-0.6,3.9-1.7,5.3-3.2C77.5,43,74.6,42.5,71.7,42.1z"
				/>
			<g id="Group_3389" transform="translate(11.992 9.489)">
				<path id="Path_3650" class="st1" d="M1.4,66.7l-0.8-1.4c-1.2-2.2-0.4-5.1,1.8-6.3c0.1,0,0.1-0.1,0.2-0.1L108,0l0.4,2.6L8,68.7
					C5.7,69.9,2.7,69.1,1.4,66.7z"/>
			</g>
			
				<linearGradient id="Path_3651_1_" gradientUnits="userSpaceOnUse" x1="-58.5088" y1="126.5769" x2="-58.3058" y2="128.3229" gradientTransform="matrix(6.8303 0 0 -4.4939 305.724 1304.3746)">
				<stop  offset="0" style="stop-color:#FFC444"/>
				<stop  offset="0.996" style="stop-color:#F36F56"/>
			</linearGradient>
			<path id="Path_3651" class="st83" d="M21.1,65.2l0.5-1.7c0.7,0,1.4-0.3,1.9-0.8c0.5-0.3,1-0.5,1.6-0.5c0.3,0,1.2-0.1,0.2,0.5
				s-1,1-0.5,1.4c0.9,0.6,1.9,1,2.9,1.1c0.6,0-0.4,1.1-1,1.2c-1,0.3-2,0.3-3-0.2C23.3,66.1,21.1,65.2,21.1,65.2z"/>
			
				<linearGradient id="Path_3652_1_" gradientUnits="userSpaceOnUse" x1="-42.079" y1="277.0337" x2="-42.218" y2="268.1337" gradientTransform="matrix(6.2444 0 0 -4.3484 344.519 1232.4088)">
				<stop  offset="0" style="stop-color:#FFC444"/>
				<stop  offset="0.996" style="stop-color:#F36F56"/>
			</linearGradient>
			<path id="Path_3652" class="st84" d="M78.4,39.7c1.3-0.9,2.4-1.9,3.4-3.1c1.1-1.4,2.6-1.1,2.8-0.4s-1.7,2.9-2.7,3.5
				S78.4,39.7,78.4,39.7z"/>
		</g>
		<g id="Group_3393" transform="translate(118.546 0)">
			
				<linearGradient id="Path_3653_1_" gradientUnits="userSpaceOnUse" x1="-150.2527" y1="402.491" x2="-150.5307" y2="401.166" gradientTransform="matrix(101.7722 0 0 -106.9133 15347.6543 43117.6836)">
				<stop  offset="0" style="stop-color:#AA80F9"/>
				<stop  offset="0.996" style="stop-color:#6165D7"/>
			</linearGradient>
			<path id="Path_3653" class="st85" d="M1.4,102.4c11.1-13.3,70.5-32.6,98-23.5c3.2,9.1,4.4,18.8,3.5,28.4
				c-2.9,31.4-27.9,52.7-37.5,58.7c-5,3.1-9.8,4.6-17.5,10.9c-4.8,4-7.8,7.4-10.2,6.4c-2.5-1-3-6.4-2.7-10c1-10.7,9.8-13,9.8-19.5
				c0-7.7-12.2-10.4-23.9-20.8C14.7,127.4,6.9,118.2,1.4,102.4z"/>
			
				<linearGradient id="Path_3654_1_" gradientUnits="userSpaceOnUse" x1="-150.7926" y1="398.3825" x2="-149.7926" y2="398.3825" gradientTransform="matrix(101.3972 0 0 -30.9412 15290 12417.0977)">
				<stop  offset="0" style="stop-color:#D8DEE8"/>
				<stop  offset="0.494" style="stop-color:#EBEFF2"/>
				<stop  offset="1" style="stop-color:#FFFFFF"/>
			</linearGradient>
			<path id="Path_3654" class="st86" d="M10.8,106.1c-8.7,0-10.3-1.9-10.6-3.4c-0.4-1.9,0.5-5,13.9-10.5
				c22.5-8.6,46.1-14.3,70.2-16.7c14.5-1.1,16.7,1.3,17.2,3.1s-0.5,5-13.9,10.5c-22.5,8.6-46.1,14.3-70.2,16.7
				C14.8,106.1,12.6,106.1,10.8,106.1z M90.7,77.9c-1.8,0-3.9,0.1-6.5,0.3c-23.6,2.4-46.7,7.9-68.9,16.4
				c-12.3,5.1-12.6,7.5-12.6,7.6s1.3,2.1,14.6,1.1c23.6-2.4,46.7-7.9,68.9-16.4c12.3-5,12.6-7.5,12.6-7.6
				C98.8,79.2,97.9,77.9,90.7,77.9z"/>
			<g id="Group_3392">
				
					<linearGradient id="Path_3655_1_" gradientUnits="userSpaceOnUse" x1="-153.3525" y1="386.7261" x2="-152.2925" y2="386.7261" gradientTransform="matrix(21.2222 0 0 -9.5493 3258.7029 3756.6165)">
					<stop  offset="0" style="stop-color:#311944"/>
					<stop  offset="1" style="stop-color:#893976"/>
				</linearGradient>
				<path id="Path_3655" class="st87" d="M22.3,67.7c0,0-0.1-0.1-0.1-0.2L22,67.3c-0.1-0.1-0.2-0.3-0.3-0.4
					c-0.2-0.3-0.5-0.5-0.7-0.7c-0.5-0.5-1.1-0.9-1.6-1.3c-1.1-0.7-2.3-1.1-3.5-1.2c-0.1,0-0.3,0-0.4,0l-0.4,0
					c-0.3,0-0.6,0.1-0.9,0.1c-0.3,0.1-0.6,0.1-0.9,0.2c-0.3,0.1-0.6,0.2-0.9,0.3c-1.2,0.5-2.3,1.3-3.2,2.1c-1.3,1.1-3.2,1-4.3-0.3
					C3.6,65,3.8,63,5,61.9c0.1-0.1,0.2-0.2,0.4-0.3l0.1,0c1.6-1,3.3-1.8,5.2-2.3c0.5-0.1,1-0.2,1.4-0.3c0.5-0.1,1-0.1,1.5-0.1
					c0.5,0,1,0,1.5,0.1l0.7,0.1c0.2,0,0.5,0.1,0.7,0.2c1.9,0.5,3.6,1.4,5.1,2.7c0.7,0.6,1.3,1.3,1.9,2c0.3,0.4,0.5,0.7,0.8,1.1
					c0.1,0.2,0.2,0.4,0.4,0.6c0.1,0.1,0.1,0.2,0.2,0.3l0.2,0.3c0.4,0.7,0.1,1.7-0.6,2.1c-0.6,0.3-1.4,0.2-1.8-0.3L22.3,67.7z"/>
				
					<linearGradient id="Path_3656_1_" gradientUnits="userSpaceOnUse" x1="-152.7377" y1="391.8556" x2="-153.8337" y2="391.2596" gradientTransform="matrix(19.2009 0 0 -13.3186 3030.3643 5269.1533)">
					<stop  offset="0" style="stop-color:#311944"/>
					<stop  offset="1" style="stop-color:#893976"/>
				</linearGradient>
				<path id="Path_3656" class="st88" d="M79.1,59.9l0.1-0.4c0-0.1,0-0.2,0.1-0.3c0-0.2,0.1-0.4,0.1-0.7c0.1-0.4,0.2-0.9,0.4-1.3
					c0.3-0.9,0.6-1.7,1.1-2.5c0.9-1.7,2.2-3.2,3.8-4.3c0.2-0.1,0.4-0.3,0.6-0.4l0.7-0.4c0.5-0.2,0.9-0.4,1.4-0.6
					c0.5-0.2,1-0.3,1.4-0.4c0.5-0.1,1-0.2,1.5-0.2c1.9-0.2,3.8-0.1,5.6,0.3l0.1,0c1.7,0.3,2.7,1.9,2.4,3.6c-0.3,1.7-1.9,2.7-3.6,2.4
					c-0.2,0-0.3-0.1-0.5-0.1c-1.2-0.5-2.5-0.8-3.8-0.8c-0.3,0-0.6,0-0.9,0c-0.3,0-0.6,0.1-0.9,0.1c-0.3,0-0.6,0.1-0.9,0.2l-0.4,0.1
					c-0.1,0-0.3,0.1-0.4,0.2c-1.1,0.6-2.1,1.4-2.9,2.4c-0.4,0.6-0.8,1.1-1.1,1.8c-0.2,0.3-0.3,0.6-0.4,1c-0.1,0.2-0.1,0.3-0.2,0.5
					l-0.1,0.2c0,0.1-0.1,0.2-0.1,0.2L82,60.7c-0.3,0.8-1.2,1.2-2,0.8C79.4,61.2,79,60.6,79.1,59.9L79.1,59.9z"/>
				
					<linearGradient id="Path_3657_1_" gradientUnits="userSpaceOnUse" x1="-153.4272" y1="389.8244" x2="-152.4501" y2="390.6404" gradientTransform="matrix(20.7312 0 0 -11.9639 3181.0027 4755.4443)">
					<stop  offset="0" style="stop-color:#311944"/>
					<stop  offset="1" style="stop-color:#893976"/>
				</linearGradient>
				<path id="Path_3657" class="st89" d="M18.3,87.4c0,0-0.1-0.1-0.2-0.1l-0.2-0.1c-0.2-0.1-0.3-0.1-0.5-0.2c-0.3-0.1-0.7-0.2-1-0.4
					c-0.7-0.2-1.3-0.3-2-0.4c-1.3-0.2-2.5,0-3.7,0.4c-0.1,0.1-0.3,0.1-0.4,0.2l-0.4,0.2c-0.3,0.1-0.5,0.3-0.7,0.5
					c-0.2,0.2-0.5,0.4-0.7,0.6c-0.2,0.2-0.4,0.4-0.6,0.7c-0.8,1-1.5,2.1-2,3.3c-0.7,1.6-2.5,2.3-4,1.6c-1.6-0.7-2.3-2.5-1.6-4l0,0
					c0.1-0.1,0.1-0.3,0.2-0.4l0-0.1c1-1.6,2.2-3.1,3.7-4.3c0.4-0.3,0.8-0.6,1.2-0.9c0.4-0.3,0.9-0.5,1.3-0.8C7.1,83,7.6,82.8,8,82.7
					l0.7-0.2c0.2-0.1,0.5-0.1,0.7-0.2c1.9-0.4,3.9-0.3,5.7,0.2c0.9,0.2,1.7,0.6,2.5,1c0.4,0.2,0.8,0.4,1.2,0.6
					c0.2,0.1,0.4,0.2,0.6,0.4c0.1,0.1,0.2,0.1,0.3,0.2l0.3,0.2c0.7,0.5,0.8,1.5,0.3,2.1c-0.4,0.6-1.1,0.8-1.8,0.5L18.3,87.4z"/>
				
					<linearGradient id="Path_3658_1_" gradientUnits="userSpaceOnUse" x1="-154.6572" y1="394.1549" x2="-153.9392" y2="395.2579" gradientTransform="matrix(14.9023 0 0 -17.9329 2319.3528 7189.5547)">
					<stop  offset="0" style="stop-color:#311944"/>
					<stop  offset="1" style="stop-color:#893976"/>
				</linearGradient>
				<path id="Path_3658" class="st90" d="M26.8,107.2c0,0-0.1,0-0.2,0l-0.3,0c-0.2,0-0.3,0.1-0.5,0.1c-0.3,0.1-0.7,0.2-1,0.3
					c-0.7,0.2-1.3,0.5-1.9,0.8c-1.1,0.6-2.1,1.5-2.8,2.5c-0.1,0.1-0.2,0.2-0.2,0.4l-0.2,0.4c-0.1,0.3-0.2,0.5-0.3,0.8
					c-0.1,0.3-0.2,0.6-0.2,0.9c0,0.3-0.1,0.6-0.1,0.9c-0.1,1.3,0,2.6,0.3,3.9c0.4,1.6-0.7,3.3-2.3,3.6c-1.6,0.4-3.3-0.7-3.6-2.3
					c0-0.2-0.1-0.3-0.1-0.5l0-0.1c-0.1-1.9,0-3.8,0.4-5.6c0.1-0.5,0.3-1,0.4-1.4c0.2-0.5,0.4-0.9,0.6-1.4c0.2-0.4,0.5-0.9,0.8-1.3
					l0.4-0.6c0.2-0.2,0.3-0.4,0.5-0.6c1.3-1.4,3-2.5,4.8-3.2c0.9-0.3,1.7-0.5,2.6-0.7c0.4-0.1,0.9-0.1,1.3-0.2c0.2,0,0.4,0,0.7,0
					c0.1,0,0.2,0,0.3,0h0.4c0.8,0,1.5,0.7,1.5,1.5c0,0.7-0.5,1.3-1.1,1.5L26.8,107.2z"/>
				
					<linearGradient id="Path_3659_1_" gradientUnits="userSpaceOnUse" x1="-124.7307" y1="351.4953" x2="-125.6497" y2="352.6543" gradientTransform="matrix(21.1455 0 0 -9.7843 3326.7393 3860.9468)">
					<stop  offset="0" style="stop-color:#311944"/>
					<stop  offset="1" style="stop-color:#893976"/>
				</linearGradient>
				<path id="Path_3659" class="st91" d="M83.7,75.8l0.2-0.3c0.1-0.1,0.1-0.2,0.2-0.3c0.1-0.2,0.2-0.4,0.3-0.6
					c0.2-0.4,0.5-0.7,0.8-1.1c0.5-0.7,1.2-1.4,1.8-2c1.4-1.3,3.1-2.3,5-2.8c0.2-0.1,0.5-0.1,0.7-0.2l0.7-0.1c0.5-0.1,1-0.1,1.5-0.1
					c0.5,0,1,0,1.5,0.1c0.5,0.1,1,0.1,1.5,0.3c1.8,0.4,3.6,1.2,5.2,2.2l0.1,0c1.5,0.9,1.9,2.7,1.1,4.2c-0.9,1.5-2.7,1.9-4.2,1.1l0,0
					c-0.1-0.1-0.3-0.2-0.4-0.3c-1-0.8-2.1-1.5-3.3-2.1c-0.3-0.1-0.6-0.2-0.9-0.3c-0.3-0.1-0.6-0.1-0.9-0.2c-0.3-0.1-0.6-0.1-0.9-0.1
					h-0.4c-0.1,0-0.3,0-0.4,0c-1.3,0.1-2.5,0.6-3.5,1.3c-0.6,0.4-1.1,0.8-1.6,1.3c-0.2,0.2-0.5,0.5-0.7,0.8
					c-0.1,0.1-0.2,0.3-0.3,0.4l-0.2,0.2c0,0.1-0.1,0.1-0.1,0.2l-0.2,0.2c-0.6,0.6-1.5,0.7-2.2,0.1C83.5,77.2,83.4,76.4,83.7,75.8
					L83.7,75.8z"/>
				
					<linearGradient id="Path_3660_1_" gradientUnits="userSpaceOnUse" x1="-152.8259" y1="392.1392" x2="-153.7179" y2="393.1732" gradientTransform="matrix(18.7368 0 0 -14.5627 2959.4417 5822.498)">
					<stop  offset="0" style="stop-color:#311944"/>
					<stop  offset="1" style="stop-color:#893976"/>
				</linearGradient>
				<path id="Path_3660" class="st92" d="M78.8,99.8l0.4-0.1c0.1,0,0.2-0.1,0.3-0.1c0.2-0.1,0.4-0.1,0.6-0.2
					c0.4-0.1,0.9-0.2,1.3-0.3c0.9-0.2,1.8-0.2,2.7-0.2c1.9,0,3.8,0.5,5.6,1.4c0.2,0.1,0.4,0.2,0.7,0.4l0.6,0.4
					c0.4,0.3,0.8,0.6,1.2,1c0.4,0.3,0.7,0.7,1,1.1c0.3,0.4,0.6,0.8,0.9,1.2c1,1.6,1.8,3.3,2.3,5.2l0,0.1c0.5,1.6-0.5,3.3-2.1,3.8
					s-3.3-0.5-3.8-2.1c0-0.2-0.1-0.3-0.1-0.5c-0.1-1.3-0.5-2.6-1-3.8c-0.1-0.3-0.3-0.5-0.4-0.8c-0.2-0.3-0.3-0.5-0.5-0.7
					c-0.2-0.2-0.4-0.5-0.6-0.7l-0.3-0.3c-0.1-0.1-0.2-0.2-0.3-0.3c-1-0.8-2.2-1.3-3.4-1.5c-0.7-0.1-1.4-0.2-2.1-0.2
					c-0.3,0-0.7,0-1.1,0.1c-0.2,0-0.3,0-0.5,0.1l-0.3,0c-0.1,0-0.2,0-0.2,0l-0.3,0c-0.8,0.1-1.6-0.6-1.7-1.4
					C77.8,100.7,78.2,100.1,78.8,99.8L78.8,99.8z"/>
				
					<linearGradient id="Path_3661_1_" gradientUnits="userSpaceOnUse" x1="-150.6046" y1="402.0379" x2="-150.6146" y2="401.2719" gradientTransform="matrix(69.2573 0 0 -86.4645 10483.3477 34818.4141)">
					<stop  offset="0" style="stop-color:#311944"/>
					<stop  offset="1" style="stop-color:#893976"/>
				</linearGradient>
				<path id="Path_3661" class="st93" d="M87.1,83.6c-1.2,17.2-13,42.6-33.1,43.2c-19.1,0.6-34.1-20.3-35.8-38.8
					c-2.1-23.1,16.3-47.8,35.8-47.7c15,0.1,25.5,15,26.5,16.4C88,67.8,87.4,79.4,87.1,83.6z"/>
				
					<linearGradient id="Path_3662_1_" gradientUnits="userSpaceOnUse" x1="-150.662" y1="397.2461" x2="-150.757" y2="395.9321" gradientTransform="matrix(56.093 0 0 -19.2289 8514.4297 7649.457)">
					<stop  offset="0" style="stop-color:#FFC444"/>
					<stop  offset="0.996" style="stop-color:#F36F56"/>
				</linearGradient>
				<path id="Path_3662" class="st94" d="M80.4,56.7c-1-1.4-11.5-16.3-26.5-16.4c-11.1-0.1-21.9,8-28.8,19.2
					c8-2.8,16.4-4.5,24.9-5.1c10.5-0.8,21.1,0.5,31.2,3.6C81,57.6,80.7,57.2,80.4,56.7z"/>
				
					<linearGradient id="Path_3663_1_" gradientUnits="userSpaceOnUse" x1="-151.6754" y1="401.4514" x2="-150.7974" y2="401.2134" gradientTransform="matrix(42.428 0 0 -72.5687 6482.7651 29217.2305)">
					<stop  offset="0" style="stop-color:#FFC444"/>
					<stop  offset="0.996" style="stop-color:#F36F56"/>
				</linearGradient>
				<path id="Path_3663" class="st95" d="M50.1,54.4c-5.3,23.4-6.6,47.5-3.9,71.4c2.5,0.7,5.2,1,7.8,0.9c20.1-0.7,31.9-26,33.1-43.2
					c0.3-4,0.9-14.8-5.8-25.5C71.2,54.9,60.6,53.7,50.1,54.4z"/>
				
					<linearGradient id="Path_3664_1_" gradientUnits="userSpaceOnUse" x1="-151.7578" y1="401.8057" x2="-151.7787" y2="400.8787" gradientTransform="matrix(32.0969 0 0 -71.39 4905.1206 28741.1484)">
					<stop  offset="0" style="stop-color:#FFC444"/>
					<stop  offset="0.996" style="stop-color:#F36F56"/>
				</linearGradient>
				<path id="Path_3664" class="st96" d="M50.1,54.4c-8.5,0.6-16.9,2.3-24.9,5.1c-5.1,8.4-7.9,18.6-7,28.4
					c1.4,15.9,12.7,33.6,28,37.8C43.5,102,44.8,77.9,50.1,54.4z"/>
				<g id="Group_3391" transform="translate(44.287 41.149)" class="st97">
					<path id="Path_3665" class="st12" d="M36.1,15.6C35.3,14.4,27.4,3.1,15.6,0c12.2,9.8,15.2,17.3,14.4,22.9
						c-1.8,11.9-20.7,16-20.8,29C9,62.5,21.1,66.7,20,73.4c-0.6,3.7-5.2,7.6-20,10.7c3.1,1.1,6.4,1.6,9.7,1.5
						c20.1-0.7,31.9-26,33.1-43.2C43.1,38.3,43.8,26.7,36.1,15.6z"/>
				</g>
				
					<linearGradient id="Path_3666_1_" gradientUnits="userSpaceOnUse" x1="-151.9102" y1="399.4167" x2="-151.8672" y2="402.0208" gradientTransform="matrix(30.1477 0 0 -45.3752 4657.0942 18174.4941)">
					<stop  offset="0" style="stop-color:#FFC444"/>
					<stop  offset="0.996" style="stop-color:#F36F56"/>
				</linearGradient>
				<path id="Path_3666" class="st98" d="M62.6,44.4c0.1-1.7,0.2-3.3,0.4-4.9s0.4-3.3,0.6-4.9s0.5-3.3,0.9-4.9s0.7-3.2,1.1-4.8
					c0.8-3.2,2-6.4,3.3-9.5l0.3-0.6l0.3-0.6c0.2-0.4,0.4-0.8,0.6-1.1c0.4-0.7,0.8-1.5,1.3-2.2c0.4-0.7,1-1.4,1.5-2.1
					c0.5-0.7,1.1-1.4,1.7-2l0.5-0.5c0.1-0.2,0.3-0.3,0.5-0.5l0.5-0.5C76,5.2,76.2,5,76.4,4.9L77.4,4c0.2-0.1,0.4-0.3,0.5-0.4
					s0.4-0.2,0.5-0.4c1.5-1,3.1-1.9,4.7-2.5c1-0.4,2-0.6,3-0.7c0.6,0,1.2,0,1.8,0.1c0.7,0.1,1.3,0.4,1.9,0.7
					c0.6,0.4,1.2,0.9,1.6,1.5c0.4,0.6,0.7,1.2,0.9,1.9c0.3,1.1,0.3,2.3,0.2,3.4c-0.2,1-0.4,2-0.8,3c-0.4,0.9-0.9,1.8-1.4,2.6
					c-0.6,0.8-1.2,1.6-1.9,2.3c-0.3,0.3-0.7,0.7-1.1,1l-0.3,0.2l-0.3,0.2c-0.2,0.1-0.4,0.3-0.6,0.4c-0.4,0.3-0.8,0.6-1.3,0.8
					c-0.5,0.3-1.1,0.6-1.7,0.7c-0.2,0.1-0.4,0.1-0.6,0.1L82.5,19c-0.1,0-0.2,0-0.4,0c-0.6,0-1.2,0-1.8-0.2c-0.4-0.1-0.7-0.3-1-0.5
					c-0.3-0.2-0.6-0.5-0.8-0.8c-0.3-0.4-0.6-1-0.7-1.5c-0.1-0.4-0.2-0.8-0.2-1.2c0-0.3,0-0.6,0-0.9c0-0.5,0.1-1.1,0.1-1.6
					c0.1-0.5,0.2-1,0.3-1.4c0.1-0.2,0.1-0.5,0.2-0.7l0.1-0.3l0.1-0.2l0.1-0.2l0,0c0.5-1.6,2.2-2.5,3.8-2c1.6,0.5,2.5,2.2,2,3.8
					c0,0.1,0,0.1-0.1,0.2c0,0,0,0.1,0,0.1l0,0.1l-0.1,0.2c-0.1,0.2-0.1,0.3-0.1,0.5c-0.1,0.3-0.2,0.6-0.2,0.9
					c-0.1,0.3-0.1,0.5-0.1,0.8c0,0.2,0,0.4,0,0.3c-0.1-0.1-0.1-0.3-0.2-0.4c-0.2-0.3-0.5-0.5-0.8-0.6c-0.2-0.1-0.4-0.1-0.6-0.1
					c0,0,0,0,0,0c0,0,0,0,0,0c0,0,0,0,0,0c0.2-0.1,0.4-0.1,0.6-0.2c0.3-0.1,0.6-0.3,0.8-0.5c0.1-0.1,0.3-0.2,0.4-0.3l0.2-0.2
					l0.2-0.1c0.3-0.2,0.5-0.4,0.7-0.6c0.5-0.4,0.9-0.9,1.3-1.4c0.4-0.5,0.7-1,1-1.6c0.3-0.5,0.5-1.1,0.6-1.7
					c0.1-0.5,0.1-0.9,0.1-1.4c0-0.1-0.1-0.3-0.1-0.4c0-0.1-0.1-0.1-0.1-0.2c-0.1-0.1-0.2-0.1-0.3-0.2c-0.2,0-0.4-0.1-0.6-0.1
					c-0.6,0-1.2,0.1-1.8,0.3c-1.4,0.5-2.7,1.1-3.9,1.9c-0.2,0.1-0.3,0.2-0.5,0.3S80,7.3,79.8,7.4L79,8.1c-0.1,0.1-0.3,0.2-0.4,0.3
					l-0.4,0.4C78,8.9,77.8,9,77.7,9.1l-0.4,0.4c-0.5,0.5-1,1.1-1.5,1.6c-0.5,0.6-1,1.2-1.4,1.8c-0.5,0.6-0.9,1.3-1.3,1.9
					c-0.2,0.3-0.4,0.7-0.6,1l-0.3,0.5l-0.3,0.5c-1.5,2.8-2.7,5.7-3.6,8.8c-0.5,1.5-0.9,3.1-1.3,4.6s-0.8,3.1-1.1,4.7
					s-0.6,3.2-0.9,4.8s-0.5,3.2-0.6,4.8v0c0,0.5-0.5,0.9-1,0.9C62.9,45.3,62.5,44.9,62.6,44.4L62.6,44.4z"/>
				
					<linearGradient id="Path_3667_1_" gradientUnits="userSpaceOnUse" x1="-151.9095" y1="399.4599" x2="-151.8655" y2="402.0649" gradientTransform="matrix(30.1492 0 0 -45.3389 4605.6675 18161.3477)">
					<stop  offset="0" style="stop-color:#FFC444"/>
					<stop  offset="0.996" style="stop-color:#F36F56"/>
				</linearGradient>
				<path id="Path_3667" class="st99" d="M39.2,46c-0.2-1.6-0.4-3.2-0.6-4.8s-0.5-3.2-0.9-4.8s-0.7-3.1-1.1-4.7s-0.9-3.1-1.3-4.6
					c-1-3-2.2-5.9-3.6-8.8l-0.3-0.5l-0.3-0.5c-0.2-0.3-0.4-0.7-0.6-1c-0.4-0.7-0.8-1.3-1.3-1.9c-0.4-0.6-0.9-1.2-1.4-1.8
					c-0.5-0.6-1-1.1-1.5-1.6l-0.4-0.4c-0.1-0.1-0.3-0.2-0.4-0.4l-0.4-0.4c-0.1-0.1-0.3-0.2-0.4-0.3L23.8,9c-0.1-0.1-0.3-0.2-0.5-0.3
					S23,8.5,22.8,8.4c-1.2-0.8-2.6-1.4-3.9-1.9c-0.6-0.2-1.2-0.3-1.8-0.3c-0.2,0-0.4,0-0.6,0.1c-0.1,0-0.2,0.1-0.3,0.2
					c-0.1,0-0.1,0.1-0.1,0.2c-0.1,0.1-0.1,0.2-0.1,0.4c-0.1,0.5,0,0.9,0.1,1.4c0.1,0.6,0.3,1.2,0.6,1.7c0.3,0.6,0.6,1.1,1,1.6
					c0.4,0.5,0.8,1,1.3,1.4c0.2,0.2,0.5,0.4,0.7,0.6l0.2,0.1l0.2,0.2c0.1,0.1,0.3,0.2,0.4,0.3c0.3,0.2,0.5,0.3,0.8,0.5
					c0.2,0.1,0.4,0.2,0.6,0.2c0,0,0,0,0,0c0,0,0,0,0,0c0,0,0,0-0.1,0c-0.2,0-0.4,0-0.6,0.1c-0.2,0.1-0.3,0.1-0.5,0.2
					c-0.1,0.1-0.2,0.2-0.3,0.3c-0.1,0.1-0.2,0.3-0.2,0.4c0,0.1,0-0.1,0-0.3c0-0.3-0.1-0.5-0.1-0.8c-0.1-0.3-0.1-0.6-0.2-0.9
					c0-0.2-0.1-0.3-0.1-0.5l-0.1-0.2l0-0.1c0,0,0-0.1,0-0.1c-0.6-1.6,0.1-3.3,1.7-4c1.6-0.6,3.3,0.1,4,1.7c0,0,0,0.1,0,0.1
					c0,0.1,0,0.1,0.1,0.2l0,0l0.1,0.2l0.1,0.2l0.1,0.3c0.1,0.2,0.1,0.5,0.2,0.7c0.1,0.5,0.2,0.9,0.3,1.4c0.1,0.5,0.1,1.1,0.1,1.6
					c0,0.3,0,0.6,0,0.9c0,0.4-0.1,0.8-0.2,1.2c-0.2,0.5-0.4,1-0.7,1.5c-0.2,0.3-0.5,0.6-0.8,0.8c-0.3,0.2-0.6,0.4-1,0.5
					c-0.6,0.2-1.2,0.3-1.8,0.2c-0.1,0-0.2,0-0.4,0l-0.3-0.1c-0.2,0-0.4-0.1-0.6-0.1c-0.6-0.2-1.1-0.4-1.7-0.7
					c-0.4-0.2-0.9-0.5-1.3-0.8c-0.2-0.1-0.4-0.3-0.6-0.4l-0.3-0.2L16.3,18c-0.4-0.3-0.7-0.6-1.1-1c-0.7-0.7-1.3-1.4-1.9-2.3
					c-0.6-0.8-1-1.7-1.4-2.6c-0.4-0.9-0.7-1.9-0.8-3c-0.2-1.1-0.1-2.3,0.2-3.4c0.2-0.7,0.5-1.3,0.9-1.9c0.4-0.6,1-1.1,1.6-1.5
					c0.6-0.4,1.3-0.6,1.9-0.7c0.6-0.1,1.2-0.1,1.8-0.1c1,0.1,2,0.3,3,0.7c1.7,0.7,3.3,1.5,4.7,2.5c0.2,0.1,0.4,0.2,0.5,0.4
					s0.4,0.2,0.5,0.4l1.1,0.8c0.2,0.1,0.3,0.3,0.5,0.4l0.5,0.5c0.2,0.2,0.3,0.3,0.5,0.5l0.5,0.5c0.6,0.6,1.2,1.3,1.7,2
					c0.5,0.7,1,1.4,1.5,2.1c0.5,0.7,0.9,1.5,1.3,2.2c0.2,0.4,0.4,0.8,0.6,1.1l0.3,0.6l0.3,0.6c1.4,3.1,2.5,6.2,3.3,9.5
					c0.4,1.6,0.8,3.2,1.1,4.8s0.6,3.2,0.9,4.9s0.5,3.3,0.6,4.9s0.3,3.3,0.4,4.9c0,0.5-0.4,0.9-0.9,1C39.7,46.9,39.3,46.5,39.2,46
					L39.2,46z"/>
			</g>
			<path id="Path_3668" class="st12" d="M99.4,78.9c-5.7,21.9-14.1,29.3-21.3,31.7c-12.1,4-22.6-5.8-33,0.9c-5.6,3.6-9.9,11-9.3,18
				c1.1,14,21.3,19.2,19.5,27.5c-1.2,5.4-10.1,4.6-15.5,14.4c-2.6,4.8-3.7,10.9-2,12c1.5,0.9,4.8-2,10.2-6.4
				c7.7-6.3,12.5-7.7,17.5-10.9c9.6-6,34.6-27.4,37.5-58.7C103.7,97.6,102.5,88,99.4,78.9z"/>
			
				<linearGradient id="Path_3669_1_" gradientUnits="userSpaceOnUse" x1="-150.7926" y1="398.3354" x2="-149.7926" y2="398.3354" gradientTransform="matrix(101.3984 0 0 -30.6638 15290.1826 12305.3047)">
				<stop  offset="0" style="stop-color:#D8DEE8"/>
				<stop  offset="0.494" style="stop-color:#EBEFF2"/>
				<stop  offset="1" style="stop-color:#FFFFFF"/>
			</linearGradient>
			<path id="Path_3669" class="st100" d="M101.4,78.6c-0.3-1.2-1.3-2.6-5.7-3.1c-1.1,0.8-2.2,1.6-3.3,2.4c5.6,0.2,6.3,1.3,6.4,1.3
				c0,0.1-0.3,2.5-12.6,7.6c-22.2,8.4-45.3,14-68.9,16.4c-13.3,1-14.6-1.1-14.6-1.1s0.1-1.6,6.4-4.8C8.1,96.9,7,96.5,6,96
				c-5.7,3.2-6.2,5.3-5.8,6.7c0.4,1.5,2,3.4,10.6,3.4c1.8,0,4-0.1,6.5-0.3c24-2.4,47.6-8.1,70.2-16.7
				C100.9,83.6,101.8,80.5,101.4,78.6z"/>
		</g>
	</g>
	<g id="Group_3397" transform="translate(3415.433 1467.397)">
		
			<linearGradient id="Path_3670_1_" gradientUnits="userSpaceOnUse" x1="-313.8376" y1="336.8963" x2="-313.6926" y2="334.8493" gradientTransform="matrix(6.6816 0 0 -6.5002 2101.3433 2226.6968)">
			<stop  offset="0" style="stop-color:#311944"/>
			<stop  offset="1" style="stop-color:#893976"/>
		</linearGradient>
		<path id="Path_3670" class="st101" d="M6.7,24.9c0,0-1.2-0.8-1.2-1.6s-0.8-3.7-1.3-3.7s-0.4,1.6,0,2s0,0.8-0.4,0.8
			c-1.2-0.6-2.4-1.4-3.3-2.4c-1.2-1.2,0,0.8,0.4,1.6s0.8,2.4,1.7,2.8c0.7,0.3,1.3,0.6,2,0.8l1.2,0.8L6.7,24.9z"/>
		
			<linearGradient id="Path_3671_1_" gradientUnits="userSpaceOnUse" x1="-311.983" y1="344.3886" x2="-311.837" y2="342.3636" gradientTransform="matrix(8.3108 0 0 -8.2542 2605.8157 2846.0042)">
			<stop  offset="0" style="stop-color:#311944"/>
			<stop  offset="1" style="stop-color:#893976"/>
		</linearGradient>
		<path id="Path_3671" class="st102" d="M15,3.8c-0.5-0.9-1-1.6-1.3-2.1c0-0.1-0.1-0.1-0.2,0c-0.1,0-0.1,0.1-0.1,0.2l0.8,2
			c0,0-2.6-4.4-2.6-3.7s1.5,3,1.5,3s-3.3-3.7-3.3-3s2.2,3.3,2.2,3.3S9.8,2,9.1,2s1.5,1.9,2.6,3c1.2,1.2,1.3,1.5,1.2,1.7
			c-0.2,0.5-2.1-0.2-2.2,0c0,0.1,0.8,0.6,1.7,0.9c1.1,0.3,2.2,0.6,3.3,0.7l1.5-0.7L15,3.8z"/>
		<path id="Path_3672" class="st65" d="M89.8,143.9c0.2,0.2,0.3,0.5,0.3,0.8c0,0.2,0,0.4-0.1,0.5c-0.3,0.8-0.7,0.9-1.2,1.7
			c-0.3,0.5-0.2,0.6-0.5,0.9c-0.3,0.2-0.8,0.3-1.2,0.3c-0.9,0-1.8,0-2.7-0.2c0.6-0.8,1.2-1.6,1.9-2.4c0.3-0.4,0.6-0.7,0.9-1l1.8-0.6
			L89.8,143.9z"/>
		
			<linearGradient id="Path_3673_1_" gradientUnits="userSpaceOnUse" x1="-321.2289" y1="349.9644" x2="-320.3908" y2="348.0134" gradientTransform="matrix(4.0347 0 0 -10.9399 1381.1519 3959.7136)">
			<stop  offset="0" style="stop-color:#311944"/>
			<stop  offset="1" style="stop-color:#893976"/>
		</linearGradient>
		<path id="Path_3673" class="st103" d="M88.3,135.3c0,0-1,5.3,0.3,6.8c1.1,1.5-0.5,0.4-0.5,0.4l-2,1.7l-1.2,2c0,0,1.1-5.2,0.8-7.3
			s-0.4-3.4-0.4-3.4L88.3,135.3z"/>
		<path id="Path_3674" class="st104" d="M88,141.3c0.5,0,0.8,0.4,1.1,1.3s1.5,1.7,0.1,1.5s-2.6,1.9-3.1,2.7s-2,1.5-1.9,0.7
			s0.7-1.1,0.8-1.9S86.9,141.3,88,141.3z"/>
		
			<linearGradient id="Path_3675_1_" gradientUnits="userSpaceOnUse" x1="-306.5326" y1="361.6019" x2="-305.5326" y2="361.6019" gradientTransform="matrix(29.1826 0 0 -73.1775 9008.793 26562.8535)">
			<stop  offset="0" style="stop-color:#444B8C"/>
			<stop  offset="0.996" style="stop-color:#26264F"/>
		</linearGradient>
		<path id="Path_3675" class="st105" d="M76.1,65.5c0.7,0.3,2.3,1.2,5.3,13.8c1.9,8.1,1.7,10.1,3.3,15.1c2,6.7,4.2,9.4,5.7,13
			c2.5,5.7,3.9,14.9-1.2,29.3l-4.1,1.6c0.2-5.7-0.2-11.5-1.2-17.1c-2.3-11.9-6.9-23.2-13.4-33.4c-4.4-6.4-7.6-8.8-6.9-13
			C64.4,69,71.9,63.8,76.1,65.5z"/>
		<g id="Group_3395" transform="translate(63.37 65.147)" class="st39">
			
				<linearGradient id="Path_3676_1_" gradientUnits="userSpaceOnUse" x1="-370.1506" y1="296.4549" x2="-369.1506" y2="296.4549" gradientTransform="matrix(26.4121 0 0 -73.1797 9776.459 21731.0684)">
				<stop  offset="0" style="stop-color:#444B8C"/>
				<stop  offset="0.996" style="stop-color:#26264F"/>
			</linearGradient>
			<path id="Path_3676" class="st106" d="M24.1,59.3c-0.9-8.2,1.1-10-0.4-16.3c-2.3-9.4-8.2-10.7-9.4-18.3c-0.5-3.1-0.2-7.5,3-13.3
				c-2.5-10.1-4-10.9-4.6-11.1C8.5-1.3,1,3.9,0.1,9.7c-0.6,4.2,2.5,6.6,6.9,13c6.5,10.2,11.1,21.5,13.4,33.4
				c1.1,5.6,1.5,11.4,1.2,17.1l4.1-1.6c0.2-0.7,0.5-1.4,0.7-2C25.3,66.2,24.5,62.8,24.1,59.3z"/>
		</g>
		<path id="Path_3677" class="st65" d="M78.7,146.4c0.2,0.3,0.4,0.6,0.4,0.9c0,0.2,0,0.4-0.1,0.6c-0.3,0.9-0.9,1-1.5,2
			c-0.4,0.6-0.3,0.8-0.6,1c-0.4,0.3-0.9,0.4-1.4,0.4c-1.1,0-2.2-0.1-3.2-0.2c0.7-0.9,1.5-1.9,2.3-2.8c0.4-0.4,0.7-0.8,1.1-1.2
			l2.1-0.7L78.7,146.4z"/>
		
			<linearGradient id="Path_3678_1_" gradientUnits="userSpaceOnUse" x1="-318.462" y1="352.3307" x2="-317.624" y2="350.3797" gradientTransform="matrix(4.8135 0 0 -13.0361 1605.9708 4724.1753)">
			<stop  offset="0" style="stop-color:#311944"/>
			<stop  offset="1" style="stop-color:#893976"/>
		</linearGradient>
		<path id="Path_3678" class="st107" d="M76.9,136.1c0,0-1.2,6.3,0.3,8.1c1.3,1.8-0.6,0.5-0.6,0.5l-2.3,2l-1.4,2.4
			c0,0,1.3-6.2,0.9-8.6s-0.5-4.1-0.5-4.1L76.9,136.1z"/>
		<path id="Path_3679" class="st104" d="M76.6,143.3c0.6,0,1,0.5,1.3,1.6s1.8,2.1,0.1,1.8s-3.1,2.3-3.7,3.2s-2.3,1.8-2.3,0.8
			s0.8-1.3,1-2.3S75.3,143.3,76.6,143.3z"/>
		
			<linearGradient id="Path_3680_1_" gradientUnits="userSpaceOnUse" x1="-306.9272" y1="361.7004" x2="-305.9272" y2="361.7004" gradientTransform="matrix(25.0088 0 0 -76.6099 7729.9707 27811.8789)">
			<stop  offset="0" style="stop-color:#444B8C"/>
			<stop  offset="0.996" style="stop-color:#26264F"/>
		</linearGradient>
		<path id="Path_3680" class="st108" d="M54.1,79.3c8.6,19.4,14.8,39.8,18.3,60.7c1.7,0.5,3.6,0.5,5.3,0c1.5-6.8,1.8-13.8,0.8-20.8
			c-1.1-7.3-2.6-7.1-4.1-14.7C71.9,91.8,75.2,87,72,73.2c-2-8.5-3.9-9.2-4.5-9.4C62.9,62.7,56.4,74.8,54.1,79.3z"/>
		
			<linearGradient id="Path_3681_1_" gradientUnits="userSpaceOnUse" x1="-304.4304" y1="342.0904" x2="-304.2864" y2="339.6174" gradientTransform="matrix(39.7041 0 0 -31.7192 12160.8613 11400.6963)">
			<stop  offset="0" style="stop-color:#AA80F9"/>
			<stop  offset="0.996" style="stop-color:#6165D7"/>
		</linearGradient>
		<path id="Path_3681" class="st109" d="M16.6,6.3l-1.4,2.2c6.6,3.2,12.4,7.7,17.1,13.3c7,8.4,8.8,16.1,13.3,16.2
			c2.1,0.1,5.3-1.5,9.2-9.8c-3.7-5.2-8.3-9.6-13.6-13.1C33.8,10.2,25.4,7.2,16.6,6.3z"/>
		
			<linearGradient id="Path_3682_1_" gradientUnits="userSpaceOnUse" x1="-304.5138" y1="362.0953" x2="-304.4458" y2="360.9553" gradientTransform="matrix(84.2732 0 0 -68.8118 25707.0566 24931.5996)">
			<stop  offset="0" style="stop-color:#AA80F9"/>
			<stop  offset="0.996" style="stop-color:#6165D7"/>
		</linearGradient>
		<path id="Path_3682" class="st110" d="M48.8,29.2c-6.6,5.8-9.9,8.7-11,9c-4,1.1-6.6-2.9-14.2-7.3c-5.3-3.1-11.1-5.3-17.1-6.5
			l-1.6,2.4c2.9,3.9,6.2,7.6,9.8,11c8.5,8,11.6,7.8,18.7,14.2c3,2.7,11.6,10.7,16.3,23.2c3.7,9.8,3.2,17.5,6.1,17.9
			c1.8,0.2,2.4-2.5,7.7-8.1c3.9-4.1,7.3-7.7,12.6-10.2c2.8-1.3,4.8-1.7,8.1-4.1c2.7-1.9,5-3.5,4.9-5.3c-0.2-3.2-7.6-2.6-14.2-7.7
			c-4.1-3.2-3.1-4.8-13-20.8c-3.8-6-6.6-10.1-9.8-9.8C51,27.3,50.3,27.9,48.8,29.2z"/>
		
			<linearGradient id="Path_3683_1_" gradientUnits="userSpaceOnUse" x1="-314.9786" y1="339.249" x2="-314.7776" y2="337.775" gradientTransform="matrix(6.106 0 0 -6.5129 1965.47 2241.9158)">
			<stop  offset="0" style="stop-color:#311944"/>
			<stop  offset="1" style="stop-color:#893976"/>
		</linearGradient>
		<path id="Path_3683" class="st111" d="M39.2,32.7l1.6,4.1c0,0,3.7-2,4.5-3.7l-3.7-2.8L39.2,32.7z"/>
		<g id="Group_3396" transform="translate(36.367 21.511)">
			
				<linearGradient id="Path_3684_1_" gradientUnits="userSpaceOnUse" x1="-351.5743" y1="356.2323" x2="-351.6973" y2="357.3033" gradientTransform="matrix(8.2847 0 0 -11.4333 2890.6265 3758.2488)">
				<stop  offset="4.000000e-03" style="stop-color:#26264F"/>
				<stop  offset="1" style="stop-color:#444B8C"/>
			</linearGradient>
			<path id="Path_3684" class="st112" d="M1.2,6.1C-0.2,4.2,0.4,0.5,1.7,0c0.4-0.1,0.6,0.1,4.3,3c1.8,1.5,2.7,2.2,2.7,3.3
				C8.7,7,8.5,7.7,8,8.2C7.6,8.7,7.2,9,6.7,9.4C6.1,9.9,6.1,9.9,5.9,10c-0.9,0.6-1.8,1.1-2.8,1.4c0-0.4,0.1-0.9,0-1.3
				C3.1,9.6,3,9,2.9,8.5C2.5,7.6,1.9,6.8,1.2,6.1z"/>
			
				<linearGradient id="Path_3685_1_" gradientUnits="userSpaceOnUse" x1="-487.1451" y1="470.6372" x2="-485.7381" y2="469.0512" gradientTransform="matrix(6.7183 0 0 -6.2474 2356.8047 1986.1392)">
				<stop  offset="0" style="stop-color:#311944"/>
				<stop  offset="1" style="stop-color:#893976"/>
			</linearGradient>
			<path id="Path_3685" class="st113" d="M4.9,11c-1.1,0.8-2.6,1-3.9,0.5C-1,10.7,0.4,6.1,2,5.6c0.7-0.1,1.5,0,2.1,0.5
				c0.4,0.3,0.4,0.5,1,0.9c0.6,0.4,0.8,0.4,0.9,0.6c0.2,0.3,0.2,0.8-0.7,2c0.4-0.3,0.9-0.2,1.3,0C6.6,9.7,6.7,9.8,6.7,10
				C6.8,10.6,6.1,11,4.9,11z"/>
		</g>
		
			<linearGradient id="Path_3686_1_" gradientUnits="userSpaceOnUse" x1="-305.0287" y1="361.2179" x2="-304.0287" y2="361.2179" gradientTransform="matrix(80.1873 0 0 -62.3049 24467.4805 22567.6543)">
			<stop  offset="0" style="stop-color:#AA80F9"/>
			<stop  offset="0.996" style="stop-color:#6165D7"/>
		</linearGradient>
		<path id="Path_3686" class="st114" d="M76.5,68.3c-9.4,3.3-12.7,11.9-16.7,10.6c-4.8-1.6-0.5-14.5-8.5-21.2
			c-4.6-3.9-8.4-1.5-13.4-6.5c-4.2-4.2-2.9-7.1-6.9-10.6c-4.4-3.9-8.6-2.6-14.2-4.5c-3.2-1.1-6.1-2.9-8.6-5.3
			c2.1,2.4,4.2,4.7,6.5,6.9c8.5,8,11.6,7.8,18.7,14.2c3,2.7,11.6,10.7,16.3,23.2c3.7,9.8,3.2,17.5,6.1,17.9c1.8,0.2,2.4-2.5,7.7-8.1
			c3.9-4.1,7.3-7.7,12.6-10.2c2.8-1.3,4.8-1.7,8.1-4.1c1.5-0.9,2.8-2,4-3.3C84.3,66.8,80.3,67,76.5,68.3z"/>
	</g>
	<g id="Group_3399" transform="translate(3412.733 1257.443)">
		
			<linearGradient id="Path_3687_1_" gradientUnits="userSpaceOnUse" x1="-311.1688" y1="549.7084" x2="-310.1689" y2="549.7084" gradientTransform="matrix(7.1128 0 0 -6.6951 2439.6316 3914.917)">
			<stop  offset="0" style="stop-color:#FFC444"/>
			<stop  offset="0.996" style="stop-color:#F36F56"/>
		</linearGradient>
		<path id="Path_3687" class="st115" d="M232.6,237.9c-0.8-0.4-1.5-0.9-2.1-1.7c-0.4-0.8-2.1-1.7-2.9-2.5c-0.5-0.6-1-1.3-1.3-2.1
			c-0.1-0.2,0-0.4,0.2-0.4c0.1,0,0.2,0,0.3,0c0.8,0.4,1.7,0.7,2.5,0.9c1.7,0.4,2.5,3.3,2.5,3.3l1.7,2.1L232.6,237.9z"/>
		
			<linearGradient id="Path_3688_1_" gradientUnits="userSpaceOnUse" x1="-302.809" y1="570.7917" x2="-302.752" y2="569.8307" gradientTransform="matrix(38.4419 0 0 -42.1221 11889.4014 24264.127)">
			<stop  offset="0" style="stop-color:#FFC444"/>
			<stop  offset="0.996" style="stop-color:#F36F56"/>
		</linearGradient>
		<path id="Path_3688" class="st116" d="M233.1,236.3l-1.7,1.2c1.1,2.8,2.7,6.9,5,11.6c6.8,14,14.1,29.3,23.5,29.3
			c4.6,0,9.5-3.7,9.9-7.4c0.5-4.2-4.6-7.8-9.1-11.1C251,252.5,241.8,244.7,233.1,236.3z"/>
		
			<linearGradient id="Path_3689_1_" gradientUnits="userSpaceOnUse" x1="-301.7672" y1="573.2287" x2="-300.7672" y2="573.2287" gradientTransform="matrix(230.6492 0 0 -305.3289 69602.3516 175175.9219)">
			<stop  offset="0" style="stop-color:#444B8C"/>
			<stop  offset="0.996" style="stop-color:#26264F"/>
		</linearGradient>
		<path id="Path_3689" class="st117" d="M220.9,305.3c-0.2,0-0.3-0.1-0.4-0.2c-9-8.8-12.9-16.7-11.6-23.4c1-5.1,4.6-8,8.5-11.2
			c3.7-3,7.5-6.1,9.9-11.4c3.2-7.1,2.9-15.9-1-26.1L116,89.2L8.4,6.3C7.3,5.5,6,4.9,4.7,4.5C2.8,3.9,1.1,2.7,0.1,0.9
			C-0.1,0.6,0,0.3,0.3,0.1C0.6-0.1,1,0,1.1,0.3c0.9,1.5,2.3,2.5,3.9,3c1.5,0.4,2.8,1.1,4.1,2.1l107.8,83l110.4,144.2l0,0.1
			c4.1,10.6,4.4,19.7,1,27.1c-2.5,5.6-6.6,8.9-10.2,11.8c-3.8,3.1-7.1,5.8-8.1,10.4c-1.2,6.3,2.5,13.7,11.2,22.2
			c0.2,0.2,0.2,0.6,0,0.9C221.2,305.3,221,305.3,220.9,305.3L220.9,305.3z"/>
		
			<linearGradient id="Path_3690_1_" gradientUnits="userSpaceOnUse" x1="-308.6124" y1="518.7811" x2="-308.3744" y2="523.6221" gradientTransform="matrix(9.2563 0 0 -3.1511 3072.9692 1999.739)">
			<stop  offset="0" style="stop-color:#444B8C"/>
			<stop  offset="0.996" style="stop-color:#26264F"/>
		</linearGradient>
		<path id="Path_3690" class="st118" d="M220.5,351.2c0,0-5.7,1.4-6.9,1.9s3.3,0.8,5.4,1.1s2.4,0,2.4,0c0.4-0.6,0.8-1.1,1.2-1.7
			C223.3,351.8,220.5,351.2,220.5,351.2z"/>
		
			<linearGradient id="Path_3691_1_" gradientUnits="userSpaceOnUse" x1="-314.8028" y1="529.9915" x2="-313.1358" y2="540.0205" gradientTransform="matrix(5.0791 0 0 -3.8132 1820.5406 2377.5796)">
			<stop  offset="0" style="stop-color:#FFC444"/>
			<stop  offset="0.996" style="stop-color:#F36F56"/>
		</linearGradient>
		<path id="Path_3691" class="st119" d="M223.5,348.8l-3.2,2.9c0.3,0.6,0.9,1,1.6,1l3.5-2.5L223.5,348.8z"/>
		
			<linearGradient id="Path_3692_1_" gradientUnits="userSpaceOnUse" x1="-302.0977" y1="570.5129" x2="-303.0597" y2="570.2809" gradientTransform="matrix(44.1821 0 0 -47.9902 13610.4043 27700.3555)">
			<stop  offset="0" style="stop-color:#444B8C"/>
			<stop  offset="0.996" style="stop-color:#26264F"/>
		</linearGradient>
		<path id="Path_3692" class="st120" d="M266.1,302.8c-0.5,3.5-1.6,6.8-3.3,9.9c-5.6,10.4-13.2,9.2-20.6,20.2
			c-3.1,4.6-3.7,7.6-8.3,12c-2.5,2.3-5.2,4.3-8.3,5.8l-3.7-2.1c1.8-2.9,4.8-7.7,8.3-13.6c10.8-18.6,13-25.2,20.6-29.3
			C253.7,304.1,258.6,302.3,266.1,302.8z"/>
		<g id="Group_3398" transform="translate(221.901 302.695)" class="st39">
			
				<linearGradient id="Path_3693_1_" gradientUnits="userSpaceOnUse" x1="-524.0604" y1="267.684" x2="-525.1044" y2="267.442" gradientTransform="matrix(40.7476 0 0 -45.9751 21395.0098 12324.042)">
				<stop  offset="0" style="stop-color:#444B8C"/>
				<stop  offset="0.996" style="stop-color:#26264F"/>
			</linearGradient>
			<path id="Path_3693" class="st121" d="M16.1,26.1c4.4-5.3,7.9-4.2,13.6-8.7c3.8-2.9,8.2-8,11-17.4c-4.1,0-8.2,1-11.8,3
				c-7.6,4.1-9.8,10.7-20.6,29.3C4.8,38.2,1.8,43,0,45.9L0.1,46c2.6-0.7,4.9-2,6.9-3.8C12.4,37.4,11,32.2,16.1,26.1z"/>
		</g>
		
			<linearGradient id="Path_3694_1_" gradientUnits="userSpaceOnUse" x1="-320.0299" y1="556.1031" x2="-319.0299" y2="556.1031" gradientTransform="matrix(3.7173 0 0 -9.1204 1414.0215 5308.1216)">
			<stop  offset="0" style="stop-color:#FFC444"/>
			<stop  offset="0.996" style="stop-color:#F36F56"/>
		</linearGradient>
		<path id="Path_3694" class="st122" d="M228.1,240c-0.6-0.8-0.9-1.9-0.8-2.9c0-2.1-2.1-5-2.5-5.4s-0.4,2.9-0.4,4.1s2.9,5,2.9,5
			L228.1,240z"/>
		
			<linearGradient id="Path_3695_1_" gradientUnits="userSpaceOnUse" x1="-308.5518" y1="519.9921" x2="-308.3148" y2="524.8331" gradientTransform="matrix(9.2568 0 0 -3.1511 3047.5886 1999.9641)">
			<stop  offset="0" style="stop-color:#444B8C"/>
			<stop  offset="0.996" style="stop-color:#26264F"/>
		</linearGradient>
		<path id="Path_3695" class="st123" d="M195,351.4c0,0-5.7,1.4-6.9,1.9s3.3,0.8,5.4,1.1s2.4,0,2.4,0c0.4-0.6,0.8-1.1,1.2-1.7
			C197.8,352,195,351.4,195,351.4z"/>
		
			<linearGradient id="Path_3696_1_" gradientUnits="userSpaceOnUse" x1="-314.5583" y1="531.4734" x2="-312.8913" y2="541.5024" gradientTransform="matrix(5.0791 0 0 -3.8142 1795.0138 2378.3623)">
			<stop  offset="0" style="stop-color:#FFC444"/>
			<stop  offset="0.996" style="stop-color:#F36F56"/>
		</linearGradient>
		<path id="Path_3696" class="st124" d="M198,349l-3.2,2.9c0.3,0.6,0.9,1,1.6,1l3.5-2.5L198,349z"/>
		
			<linearGradient id="Path_3697_1_" gradientUnits="userSpaceOnUse" x1="-301.9001" y1="570.6693" x2="-302.6581" y2="570.7833" gradientTransform="matrix(57.7378 0 0 -53.1023 17671.7363 30631.2617)">
			<stop  offset="0" style="stop-color:#444B8C"/>
			<stop  offset="0.996" style="stop-color:#26264F"/>
		</linearGradient>
		<path id="Path_3697" class="st125" d="M239.7,298c-11.4,12.3-22.8,25.7-34.1,40.4c-3.1,4-6.1,8-9,12l2.9,0.7
			c5.7-1.9,10.9-4.9,15.3-9c5.9-5.5,5.3-8.3,11.4-13.8c7.1-6.4,10.9-5.3,17.7-11.1c4.6-4.1,8.2-9.2,10.5-14.9L239.7,298z"/>
		
			<linearGradient id="Path_3698_1_" gradientUnits="userSpaceOnUse" x1="-395.4251" y1="470.1947" x2="-396.1871" y2="469.3867" gradientTransform="matrix(10.5615 0 0 -16.1055 3510.3716 9337.4805)">
			<stop  offset="0" style="stop-color:#FFC444"/>
			<stop  offset="0.996" style="stop-color:#F36F56"/>
		</linearGradient>
		<path id="Path_3698" class="st126" d="M265.5,249.8c0,0-3.3,2.6-4.4,4.9s1.6,3.3,1.6,3.3l-0.8,1.4c-0.6,1.2-2,2-3.3,1.9l-1.2-0.1
			c0.8,0.5,2.1,1.3,3.7,2.1c3,1.5,6.5,2.9,6.8,2.4c0.2-0.4-1.4-1.3-2-3.4c-0.2-0.8-0.2-1.6-0.1-2.4l0.2-0.7
			C266.1,259.4,270.5,252.5,265.5,249.8z"/>
		
			<linearGradient id="Path_3699_1_" gradientUnits="userSpaceOnUse" x1="-302.3957" y1="571.0695" x2="-301.3957" y2="571.0695" gradientTransform="matrix(74.3818 0 0 -59.9307 22756.3418 34503.0742)">
			<stop  offset="0" style="stop-color:#311944"/>
			<stop  offset="1" style="stop-color:#893976"/>
		</linearGradient>
		<path id="Path_3699" class="st127" d="M264.4,252.8c-0.9-1-1.1-2.9-0.4-3.7c0.4-0.4,1.1-0.7,2.9-0.4c4.4,0.8,7.2,4.1,9.5,5.8
			c4.1,2.9,8.1,1.8,14.9,1.7c2.1,0,18.1,0,31.8,7c4.8,2.4,12.6,6.4,14.5,14.5c1.2,5.2,0.1,12.6-4.5,15.7c-6.2,4.2-14.5-2.4-19,2.1
			c-3,2.9-0.4,6.6-3.3,9.9c-4,4.5-15.1,4.3-21.9-0.8c-7.8-5.9-2.7-12.9-12.4-26.4c-3.4-4.8-5.9-10.2-9.5-14.9
			c-0.1-0.2-4.3-5.5-2.9-7.4c0.5-0.7,1.7-1,1.7-1.7C265.6,253.5,265,253.5,264.4,252.8z"/>
		
			<linearGradient id="Path_3700_1_" gradientUnits="userSpaceOnUse" x1="-302.0449" y1="572.0338" x2="-302.1939" y2="571.3918" gradientTransform="matrix(61.2393 0 0 -83.1088 18757.1211 47803.4609)">
			<stop  offset="0" style="stop-color:#FFC444"/>
			<stop  offset="0.996" style="stop-color:#F36F56"/>
		</linearGradient>
		<path id="Path_3700" class="st128" d="M228.5,238.8l-2.1,1.2c0.7,8.8,3.6,14.3,6.2,17.8c5.2,7,10.9,8,11.6,13.6
			c0.4,3.4-1.6,3.8-4.5,13.2c-1.8,5.5-2.7,8.4-2.5,12.4c0.1,2.1,0.4,8.8,5,12.8c1.8,1.6,3.7,2.3,16.1,3.3
			c14.3,1.2,16.3,0.7,20.2,2.9c4.9,2.7,7.4,6.6,8.7,5.8c1.5-0.9-0.5-6.6-0.8-7.4c-2.9-8.1-7.3-9.9-11.6-18.2
			c-1.7-3.1-2.9-6.5-3.7-9.9c-2.1-9.6,1-13.6-1.7-18.6c-2.5-4.7-7.8-5.8-12.8-7.4C249.3,257.9,239.4,252.5,228.5,238.8z"/>
		
			<linearGradient id="Path_3701_1_" gradientUnits="userSpaceOnUse" x1="-302.6407" y1="571.5136" x2="-301.6407" y2="571.5136" gradientTransform="matrix(58.8398 0 0 -71.7988 18035.8887 41319.9688)">
			<stop  offset="0" style="stop-color:#FF9085"/>
			<stop  offset="1" style="stop-color:#FB6FBB"/>
		</linearGradient>
		<path id="Path_3701" class="st129" d="M283,313.5c-3.3-2.6-5.9-1.2-9.5-4.1c-4.5-3.7-2.6-7.8-6.2-11.6c-5.9-6.4-16.6-0.7-19.4-5.4
			c-3-4.9,8.1-12.6,5.4-22.3c-1.3-4.6-5.1-7.7-7.4-9.5c-6.1-4.8-10.5-3.7-15.3-8.3c-0.7-0.7-1.4-1.5-2-2.3c1,2.7,2.3,5.3,4.1,7.7
			c5.2,7,10.9,8,11.6,13.6c0.4,3.4-1.6,3.8-4.5,13.2c-1.8,5.5-2.7,8.4-2.5,12.4c0.1,2.1,0.4,8.8,5,12.8c1.8,1.6,3.7,2.3,16.1,3.3
			c14.3,1.2,16.3,0.7,20.2,2.9c4.9,2.7,7.4,6.6,8.7,5.8c0.1-0.1,0.2-0.1,0.3-0.2C286.5,317.1,284.7,314.8,283,313.5z"/>
	</g>
	
		<linearGradient id="Path_3702_1_" gradientUnits="userSpaceOnUse" x1="3109.7373" y1="1830.0288" x2="3110.7373" y2="1830.0288" gradientTransform="matrix(45.1694 0 0 -137.5939 -136980.6719 253078.9688)">
		<stop  offset="0" style="stop-color:#444B8C"/>
		<stop  offset="0.996" style="stop-color:#26264F"/>
	</linearGradient>
	<path id="Path_3702" class="st130" d="M3529,1347c-0.3,0-0.5-0.2-0.6-0.4l-41.1-134.6c-0.1-0.4-0.5-0.7-0.9-0.8l-0.1,0l-1.5-0.6
		c-0.3-0.1-0.5-0.5-0.3-0.8c0.1-0.3,0.5-0.4,0.8-0.3l1.5,0.6c0.9,0.2,1.6,0.8,1.8,1.6l41.1,134.6c0.1,0.3-0.1,0.7-0.4,0.8
		C3529.1,1347,3529,1347,3529,1347z"/>
</g>
<g class="st131">
	<path class="st132" d="M420.1,138.7h2.7v9.3c0,2.6-1.7,4.1-4.1,4.1c-2.5,0-4.2-1.5-4.2-4.2h2.7c0,1.1,0.5,1.8,1.5,1.8
		c1,0,1.5-0.7,1.5-1.7V138.7z"/>
	<path class="st132" d="M430.4,152.1c-2.8,0-4.9-1.4-4.9-4h2.8c0.1,1.1,0.8,1.8,2,1.8c1.3,0,2-0.7,2-1.6c0-2.9-6.8-1.1-6.8-5.9
		c0-2.4,1.9-3.8,4.7-3.8c2.7,0,4.6,1.4,4.8,3.8h-2.9c-0.1-0.9-0.8-1.6-1.9-1.6c-1,0-1.8,0.5-1.8,1.6c0,2.7,6.8,1.2,6.8,5.9
		C435.1,150.2,433.5,152.1,430.4,152.1z"/>
</g>
<g class="st131">
	<path class="st132" d="M411.4,210.3h-5.7v5.6H403v-13.3h2.7v5.5h5.7v-5.5h2.7V216h-2.7V210.3z"/>
	<path class="st132" d="M416,202.7h9.7v2.1h-3.5V216h-2.7v-11.1H416V202.7z"/>
	<path class="st132" d="M427.6,202.7h3l4.2,9.9l4.2-9.9h3V216h-2.7v-8.6l-3.6,8.6h-2l-3.6-8.6v8.6h-2.7V202.7z"/>
	<path class="st132" d="M447.4,202.7v11.2h4.4v2.1h-7v-13.3H447.4z"/>
</g>
<g class="st131">
	<path class="st132" d="M415.5,264.5c2.9,0,5.3,1.6,6.2,4.3h-3.1c-0.6-1.3-1.8-1.9-3.2-1.9c-2.3,0-4,1.7-4,4.4c0,2.7,1.7,4.4,4,4.4
		c1.4,0,2.6-0.6,3.2-1.9h3.1c-0.9,2.7-3.3,4.3-6.2,4.3c-3.8,0-6.7-2.8-6.7-6.8C408.7,267.4,411.6,264.5,415.5,264.5z"/>
	<path class="st132" d="M428.5,278.1c-2.8,0-4.9-1.4-4.9-4h2.8c0.1,1.1,0.8,1.8,2,1.8c1.3,0,2-0.7,2-1.6c0-2.9-6.8-1.1-6.8-5.9
		c0-2.4,1.9-3.8,4.7-3.8c2.7,0,4.6,1.4,4.8,3.8h-2.9c-0.1-0.9-0.8-1.6-1.9-1.6c-1,0-1.8,0.5-1.8,1.6c0,2.7,6.8,1.2,6.8,5.9
		C433.2,276.2,431.6,278.1,428.5,278.1z"/>
	<path class="st132" d="M440.1,278.1c-2.8,0-4.9-1.4-4.9-4h2.8c0.1,1.1,0.8,1.8,2,1.8c1.3,0,2-0.7,2-1.6c0-2.9-6.8-1.1-6.8-5.9
		c0-2.4,1.9-3.8,4.7-3.8c2.7,0,4.6,1.4,4.7,3.8h-2.9c-0.1-0.9-0.8-1.6-1.9-1.6c-1,0-1.8,0.5-1.8,1.6c0,2.7,6.8,1.2,6.8,5.9
		C444.8,276.2,443.1,278.1,440.1,278.1z"/>
</g>
</svg>
